<svg width="340" height="60" viewBox="0 0 340 60" fill="none" xmlns="http://www.w3.org/2000/svg">
<path d="M1.78402 24.18L0.224016 24.44L0.250016 26H6.88002V24.44L4.77402 24.206L5.78802 20.8H12.522L13.536 24.18L11.586 24.44V26H19.256V24.44L17.748 24.18L11.742 6.578H7.76402L1.78402 24.18ZM12.002 18.98H6.28202L8.59602 10.998L9.09002 8.944L9.55802 10.972L12.002 18.98ZM28.9319 26.286C32.1299 26.286 33.1699 25.428 34.8079 25.298L35.3279 21.268L33.1439 21.06L31.9999 23.738C31.5059 24.206 30.8299 24.596 29.1139 24.596C25.7339 24.596 24.1219 20.878 24.1219 16.12C24.1219 10.816 26.1499 8.164 29.0099 8.164C30.5699 8.164 31.4539 8.476 31.7919 8.814L32.5979 12.532H34.9899L35.2759 7.176C34.2619 7.072 31.8439 6.474 29.3479 6.474C23.9139 6.474 19.8319 10.296 19.8319 16.432C19.8319 22.386 22.8999 26.286 28.9319 26.286ZM45.6812 26.286C50.9072 26.234 54.5212 22.152 54.5212 16.068C54.5212 10.218 51.8692 6.448 45.9932 6.448C40.7152 6.422 37.1272 10.322 37.1272 16.406C37.1272 22.308 39.7792 26.338 45.6812 26.286ZM45.8372 8.034C48.6452 8.034 50.2832 10.556 50.2832 16.068C50.2832 21.736 48.5412 24.7 45.7852 24.7C42.9512 24.7 41.3132 21.892 41.3132 16.38C41.3132 10.738 43.0552 8.034 45.8372 8.034ZM64.0071 24.18L61.8231 24.44V26H69.0511V24.44L66.4251 24.18L67.4131 12.792L67.8031 8.034L69.1291 12.714L72.9771 25.194H75.7331L79.5031 12.038L80.4651 8.034L80.9591 12.792L82.1031 24.18L79.8151 24.44V26H88.1091V24.44L86.0031 24.154L83.9231 8.632L86.7571 8.294V6.682H78.7231L75.6551 17.862L75.0311 20.904L74.3031 17.862L71.2091 6.682H63.0971V8.294L65.9051 8.632L64.0071 24.18ZM89.2167 21.944C89.2167 24.778 91.2447 26.286 93.6107 26.286C95.7427 26.286 97.2767 25.012 97.9527 24.258V24.96C97.9527 26.052 98.2647 26.286 99.4347 26.286C100.475 26.286 102.009 26.052 102.607 25.896V24.44H101.203V16.484C101.203 12.714 99.9287 11.232 95.9507 11.232C93.0127 11.232 90.4127 12.688 89.8147 13.208L90.6207 14.872C91.4527 14.482 93.0387 13.702 95.0147 13.702C97.2507 13.702 97.7447 14.56 97.7447 16.562V17.16C93.0387 17.186 89.2167 18.642 89.2167 21.944ZM95.2747 24.128C93.9747 24.128 93.0907 23.27 93.0907 21.58C93.0907 20.02 94.4687 18.746 97.7447 18.746V23.01C97.0687 23.608 96.0287 24.128 95.2747 24.128ZM105.841 24.206L104.333 24.44V26H111.119V24.44L109.559 24.206V14.742C110.287 14.196 111.509 13.468 112.731 13.468C114.525 13.468 114.941 14.482 114.941 17.056V24.232L113.537 24.44V26H120.245V24.44L118.659 24.232V17.056C118.659 12.896 117.645 11.258 114.499 11.258C112.367 11.258 110.287 12.35 109.195 13.364L109.221 12.74V11.726L108.571 11.206H108.493L104.177 11.752V13.546L105.841 14.014V24.206ZM121.953 21.944C121.953 24.778 123.981 26.286 126.347 26.286C128.479 26.286 130.013 25.012 130.689 24.258V24.96C130.689 26.052 131.001 26.286 132.171 26.286C133.211 26.286 134.745 26.052 135.343 25.896V24.44H133.939V16.484C133.939 12.714 132.665 11.232 128.687 11.232C125.749 11.232 123.149 12.688 122.551 13.208L123.357 14.872C124.189 14.482 125.775 13.702 127.751 13.702C129.987 13.702 130.481 14.56 130.481 16.562V17.16C125.775 17.186 121.953 18.642 121.953 21.944ZM128.011 24.128C126.711 24.128 125.827 23.27 125.827 21.58C125.827 20.02 127.205 18.746 130.481 18.746V23.01C129.805 23.608 128.765 24.128 128.011 24.128ZM143.413 33.02C147.651 33.02 151.629 30.81 151.629 27.456C151.629 24.908 149.861 23.608 146.325 23.608H143.543C141.463 23.608 140.735 23.27 140.735 22.126C140.735 21.736 140.943 21.19 141.281 20.748C141.879 20.878 142.581 20.93 143.335 20.93C147.261 20.93 149.653 18.876 149.627 15.73C149.627 15.054 149.471 14.456 149.237 13.962H151.915V11.128H151.005C149.757 11.128 148.587 11.856 148.197 12.35C147.209 11.57 145.701 11.18 143.673 11.18C140.293 11.18 137.277 13 137.277 16.068C137.277 18.044 138.135 19.63 140.111 20.384C138.889 20.956 138.057 22.126 138.057 23.296C138.057 24.284 138.421 25.038 139.253 25.532C137.953 26.13 136.809 27.482 136.809 28.964C136.809 31.252 138.473 33.02 143.413 33.02ZM143.595 19.318C141.749 19.318 140.995 17.992 140.995 15.912C140.995 13.754 141.957 12.74 143.543 12.74C145.207 12.74 146.013 13.728 146.013 16.016C146.013 18.044 145.311 19.318 143.595 19.318ZM143.803 31.226C141.281 31.226 140.423 30.082 140.423 28.288C140.423 27.326 140.735 26.572 141.125 26.052C141.489 26.104 141.879 26.13 142.321 26.13H145.155C147.235 26.13 147.833 26.78 147.833 28.236C147.833 30.212 145.831 31.226 143.803 31.226ZM160.003 26.286C162.317 26.286 164.631 25.142 165.463 24.258L164.813 22.828C164.033 23.4 162.421 23.972 161.017 23.972C158.495 23.972 157.143 22.074 157.013 18.98H165.463C165.619 18.356 165.671 17.55 165.671 16.432C165.593 13.104 163.721 11.18 160.211 11.18C156.025 11.18 153.217 14.04 153.217 18.772C153.217 23.192 155.245 26.286 160.003 26.286ZM157.013 17.42C157.117 13.78 158.235 12.844 159.769 12.844C161.485 12.844 162.083 14.248 162.083 16.302C162.083 16.666 162.057 17.056 162.031 17.42H157.013ZM167.902 26H174.61V24.44L173.076 24.206V14.742C173.804 14.144 175 13.468 176.196 13.468C177.99 13.468 178.354 14.482 178.354 17.056V24.206L176.924 24.44V26H183.71V24.44L182.098 24.206V17.056C182.098 16.12 182.046 15.288 181.916 14.586C182.592 14.066 183.71 13.468 184.776 13.468C186.622 13.468 187.09 14.508 187.09 17.134V24.206L185.738 24.44V26H192.472V24.44L190.782 24.206V17.03C190.782 12.974 189.664 11.258 186.544 11.258C184.646 11.258 182.592 12.194 181.526 13.182C180.928 11.882 179.836 11.258 177.938 11.258C176.378 11.258 173.856 12.246 172.712 13.364V12.272L172.322 11.414L172.01 11.206L167.694 11.752V13.546L169.358 14.014V24.206L167.902 24.44V26ZM200.94 26.286C203.254 26.286 205.568 25.142 206.4 24.258L205.75 22.828C204.97 23.4 203.358 23.972 201.954 23.972C199.432 23.972 198.08 22.074 197.95 18.98H206.4C206.556 18.356 206.608 17.55 206.608 16.432C206.53 13.104 204.658 11.18 201.148 11.18C196.962 11.18 194.154 14.04 194.154 18.772C194.154 23.192 196.182 26.286 200.94 26.286ZM197.95 17.42C198.054 13.78 199.172 12.844 200.706 12.844C202.422 12.844 203.02 14.248 203.02 16.302C203.02 16.666 202.994 17.056 202.968 17.42H197.95ZM210.295 24.206L208.787 24.44V26H215.573V24.44L214.013 24.206V14.742C214.741 14.196 215.963 13.468 217.185 13.468C218.979 13.468 219.395 14.482 219.395 17.056V24.232L217.991 24.44V26H224.699V24.44L223.113 24.232V17.056C223.113 12.896 222.099 11.258 218.953 11.258C216.821 11.258 214.741 12.35 213.649 13.364L213.675 12.74V11.726L213.025 11.206H212.947L208.631 11.752V13.546L210.295 14.014V24.206ZM231.06 26.234C232.932 26.234 235.038 25.48 235.922 24.804L235.428 23.348C234.882 23.582 233.842 23.842 232.906 23.842C231.71 23.842 231.58 23.634 231.58 20.852V13.546H235.532V11.544H231.554L231.45 7.722H229.37C229.162 8.45 228.798 9.776 228.512 10.426C228.304 10.998 228.07 11.362 227.758 11.596C227.368 11.778 226.666 12.012 226.172 12.194V13.546H227.862V23.088C227.862 25.324 228.928 26.234 231.06 26.234ZM250.339 26.286C255.721 26.286 257.541 23.14 257.541 20.54C257.541 17.394 254.681 15.912 252.497 14.872C249.949 13.624 247.869 12.714 247.869 10.66C247.869 9.126 248.857 8.034 251.015 8.034C252.263 8.034 253.251 8.424 253.511 8.71L254.057 11.908H256.137L256.293 7.358C255.539 7.306 253.719 6.448 250.911 6.448C246.465 6.448 244.255 8.814 244.255 11.648C244.255 15.184 247.219 16.77 249.247 17.706C251.925 18.902 253.693 19.812 253.693 21.71C253.693 23.478 252.575 24.622 250.209 24.622C248.623 24.622 247.427 24.128 247.011 23.686L246.439 20.332H244.333L244.099 25.142C244.957 25.194 247.219 26.286 250.339 26.286ZM261.923 32.474C264.991 32.474 266.317 30.368 267.825 26.338C268.111 25.714 270.269 19.526 272.297 13.364L273.571 13.052V11.544H267.929V13.052L269.567 13.364L267.435 20.566L266.629 23.634L265.693 20.566L263.379 13.364L265.277 13.052V11.544H258.127V13.052L259.297 13.39L264.185 26H265.589C264.627 28.704 263.587 29.744 261.871 29.744C261.299 29.744 260.389 29.588 260.155 29.432V32.214C260.467 32.37 261.325 32.474 261.923 32.474ZM276.958 21.814H274.8V25.246C275.736 25.506 277.738 26.286 280.182 26.286C284.108 26.286 286.032 24.414 286.032 21.97C286.032 19.292 283.796 18.226 281.56 17.29C279.844 16.562 278.232 16.042 278.232 14.482C278.232 13.416 279.168 12.766 280.572 12.766C281.534 12.766 282.34 13.104 282.522 13.442L283.12 15.418H285.174V12.012C284.368 11.882 282.99 11.232 280.468 11.232C277.062 11.232 274.852 12.922 274.852 15.288C274.852 17.602 276.1 18.902 278.414 19.864C280.754 20.904 282.444 21.476 282.444 22.88C282.444 23.946 281.716 24.726 280 24.726C278.96 24.726 277.816 24.284 277.556 23.868L276.958 21.814ZM292.676 26.234C294.548 26.234 296.654 25.48 297.538 24.804L297.044 23.348C296.498 23.582 295.458 23.842 294.522 23.842C293.326 23.842 293.196 23.634 293.196 20.852V13.546H297.148V11.544H293.17L293.066 7.722H290.986C290.778 8.45 290.414 9.776 290.128 10.426C289.92 10.998 289.686 11.362 289.374 11.596C288.984 11.778 288.282 12.012 287.788 12.194V13.546H289.478V23.088C289.478 25.324 290.544 26.234 292.676 26.234ZM305.629 26.286C307.943 26.286 310.257 25.142 311.089 24.258L310.439 22.828C309.659 23.4 308.047 23.972 306.643 23.972C304.121 23.972 302.769 22.074 302.639 18.98H311.089C311.245 18.356 311.297 17.55 311.297 16.432C311.219 13.104 309.347 11.18 305.837 11.18C301.651 11.18 298.843 14.04 298.843 18.772C298.843 23.192 300.871 26.286 305.629 26.286ZM302.639 17.42C302.743 13.78 303.861 12.844 305.395 12.844C307.111 12.844 307.709 14.248 307.709 16.302C307.709 16.666 307.683 17.056 307.657 17.42H302.639ZM313.528 26H320.236V24.44L318.702 24.206V14.742C319.43 14.144 320.626 13.468 321.822 13.468C323.616 13.468 323.98 14.482 323.98 17.056V24.206L322.55 24.44V26H329.336V24.44L327.724 24.206V17.056C327.724 16.12 327.672 15.288 327.542 14.586C328.218 14.066 329.336 13.468 330.402 13.468C332.248 13.468 332.716 14.508 332.716 17.134V24.206L331.364 24.44V26H338.098V24.44L336.408 24.206V17.03C336.408 12.974 335.29 11.258 332.17 11.258C330.272 11.258 328.218 12.194 327.152 13.182C326.554 11.882 325.462 11.258 323.564 11.258C322.004 11.258 319.482 12.246 318.338 13.364V12.272L317.948 11.414L317.636 11.206L313.32 11.752V13.546L314.984 14.014V24.206L313.528 24.44V26Z" fill="#333333"/>
<path d="M1.566 53.74L0.054 53.92V55H5.058V53.92L3.24 53.74L3.924 45.856L4.194 42.562L5.112 45.802L7.776 54.442H9.684L12.294 45.334L12.96 42.562L13.302 45.856L14.094 53.74L12.51 53.92V55H18.252V53.92L16.794 53.722L15.354 42.976L17.316 42.742V41.626H11.754L9.63 49.366L9.198 51.472L8.694 49.366L6.552 41.626H0.936V42.742L2.88 42.976L1.566 53.74ZM23.6448 55.198C25.2468 55.198 26.8488 54.406 27.4248 53.794L26.9748 52.804C26.4348 53.2 25.3188 53.596 24.3468 53.596C22.6008 53.596 21.6648 52.282 21.5748 50.14H27.4248C27.5328 49.708 27.5688 49.15 27.5688 48.376C27.5148 46.072 26.2188 44.74 23.7888 44.74C20.8908 44.74 18.9468 46.72 18.9468 49.996C18.9468 53.056 20.3508 55.198 23.6448 55.198ZM21.5748 49.06C21.6468 46.54 22.4208 45.892 23.4828 45.892C24.6708 45.892 25.0848 46.864 25.0848 48.286C25.0848 48.538 25.0668 48.808 25.0488 49.06H21.5748ZM32.7673 55.198C33.9913 55.198 35.1613 54.568 35.7553 53.758V54.262C35.7553 55.054 36.0973 55.198 36.8173 55.198C37.5553 55.198 38.4373 55.036 38.9593 54.928V53.902H37.9873V40.618L37.4833 40.24H37.4293L33.7213 40.6V41.59L35.4853 41.842V44.884C35.1073 44.794 34.6573 44.74 34.1893 44.74C30.6973 44.74 28.8433 47.278 28.8433 50.23C28.8433 53.704 30.6253 55.198 32.7673 55.198ZM33.7033 53.704C32.4793 53.704 31.5073 52.624 31.5433 49.942C31.5613 46.954 32.6773 45.892 34.0813 45.892C34.7113 45.892 35.3233 46.09 35.4853 46.324V52.876C35.1793 53.272 34.5493 53.704 33.7033 53.704ZM42.4149 43.354H42.4329C43.4949 43.354 44.0709 42.706 44.0709 41.77C44.0709 41.05 43.6209 40.42 42.5949 40.42C41.6049 40.42 41.0109 41.104 41.0109 42.004C41.0109 42.76 41.5149 43.354 42.4149 43.354ZM41.4609 53.758L40.2009 53.92V55H45.2229V53.92L44.0169 53.776V45.118L43.5129 44.758H43.4769L40.1829 45.154V46.36L41.4609 46.702V53.758ZM46.2791 50.086C46.2791 53.002 47.7191 55.198 50.9051 55.198C52.5431 55.198 53.9111 54.37 54.4151 53.83L54.0011 52.894C53.4431 53.254 52.5971 53.632 51.4811 53.632C50.0051 53.632 48.9791 52.264 48.9791 49.546C48.9971 46.936 49.8611 45.91 51.1391 45.91C51.6251 45.91 52.1111 46.018 52.2011 46.378L52.6511 48.358H54.2171L54.3251 45.28C53.7671 45.172 52.8851 44.74 51.3911 44.74C48.2231 44.74 46.2611 46.954 46.2791 50.086ZM55.6491 52.192C55.6491 54.154 57.0531 55.198 58.6911 55.198C60.1671 55.198 61.2291 54.316 61.6971 53.794V54.28C61.6971 55.036 61.9131 55.198 62.7231 55.198C63.4431 55.198 64.5051 55.036 64.9191 54.928V53.92H63.9471V48.412C63.9471 45.802 63.0651 44.776 60.3111 44.776C58.2771 44.776 56.4771 45.784 56.0631 46.144L56.6211 47.296C57.1971 47.026 58.2951 46.486 59.6631 46.486C61.2111 46.486 61.5531 47.08 61.5531 48.466V48.88C58.2951 48.898 55.6491 49.906 55.6491 52.192ZM59.8431 53.704C58.9431 53.704 58.3311 53.11 58.3311 51.94C58.3311 50.86 59.2851 49.978 61.5531 49.978V52.93C61.0851 53.344 60.3651 53.704 59.8431 53.704ZM66.0424 55H71.8564V53.938L69.7684 53.776V47.872C70.1644 47.584 70.9384 47.17 72.0544 47.17C72.7384 47.17 73.1344 47.386 73.3684 47.548V44.848C73.2244 44.794 72.9904 44.74 72.6844 44.74C70.8844 44.74 69.5884 46.378 69.3724 46.972H69.3184L69.3724 45.514V45.118L68.9224 44.758H68.8684L66.0784 45.136V46.378L67.2304 46.702V53.794L66.0424 53.938V55ZM79.0511 55.198C80.6531 55.198 82.2551 54.406 82.8311 53.794L82.3811 52.804C81.8411 53.2 80.7251 53.596 79.7531 53.596C78.0071 53.596 77.0711 52.282 76.9811 50.14H82.8311C82.9391 49.708 82.9751 49.15 82.9751 48.376C82.9211 46.072 81.6251 44.74 79.1951 44.74C76.2971 44.74 74.3531 46.72 74.3531 49.996C74.3531 53.056 75.7571 55.198 79.0511 55.198ZM76.9811 49.06C77.0531 46.54 77.8271 45.892 78.8891 45.892C80.0771 45.892 80.4911 46.864 80.4911 48.286C80.4911 48.538 80.4731 48.808 80.4551 49.06H76.9811ZM93.219 55.198C96.945 55.198 98.205 53.02 98.205 51.22C98.205 49.042 96.225 48.016 94.713 47.296C92.949 46.432 91.509 45.802 91.509 44.38C91.509 43.318 92.193 42.562 93.687 42.562C94.551 42.562 95.235 42.832 95.415 43.03L95.793 45.244H97.233L97.341 42.094C96.819 42.058 95.559 41.464 93.615 41.464C90.537 41.464 89.007 43.102 89.007 45.064C89.007 47.512 91.059 48.61 92.463 49.258C94.317 50.086 95.541 50.716 95.541 52.03C95.541 53.254 94.767 54.046 93.129 54.046C92.031 54.046 91.203 53.704 90.915 53.398L90.519 51.076H89.061L88.899 54.406C89.493 54.442 91.059 55.198 93.219 55.198ZM100.375 53.776L99.3668 53.92V55H104.029V53.92L102.931 53.758V47.206C103.453 46.774 104.299 46.324 105.109 46.324C106.423 46.324 106.675 47.062 106.675 48.808V53.758L105.631 53.92V55H110.365V53.92L109.213 53.758V48.808C109.213 46.036 108.601 44.794 106.315 44.794C104.731 44.794 103.363 45.622 102.769 46.162L102.895 44.596L102.877 40.582L102.409 40.24H102.355L99.0068 40.636V41.608L100.375 41.842V53.776ZM111.389 52.192C111.389 54.154 112.793 55.198 114.431 55.198C115.907 55.198 116.969 54.316 117.437 53.794V54.28C117.437 55.036 117.653 55.198 118.463 55.198C119.183 55.198 120.245 55.036 120.659 54.928V53.92H119.687V48.412C119.687 45.802 118.805 44.776 116.051 44.776C114.017 44.776 112.217 45.784 111.803 46.144L112.361 47.296C112.937 47.026 114.035 46.486 115.403 46.486C116.951 46.486 117.293 47.08 117.293 48.466V48.88C114.035 48.898 111.389 49.906 111.389 52.192ZM115.583 53.704C114.683 53.704 114.071 53.11 114.071 51.94C114.071 50.86 115.025 49.978 117.293 49.978V52.93C116.825 53.344 116.105 53.704 115.583 53.704ZM121.783 55H127.597V53.938L125.509 53.776V47.872C125.905 47.584 126.679 47.17 127.795 47.17C128.479 47.17 128.875 47.386 129.109 47.548V44.848C128.965 44.794 128.731 44.74 128.425 44.74C126.625 44.74 125.329 46.378 125.113 46.972H125.059L125.113 45.514V45.118L124.663 44.758H124.609L121.819 45.136V46.378L122.971 46.702V53.794L121.783 53.938V55ZM134.791 55.198C136.393 55.198 137.995 54.406 138.571 53.794L138.121 52.804C137.581 53.2 136.465 53.596 135.493 53.596C133.747 53.596 132.811 52.282 132.721 50.14H138.571C138.679 49.708 138.715 49.15 138.715 48.376C138.661 46.072 137.365 44.74 134.935 44.74C132.037 44.74 130.093 46.72 130.093 49.996C130.093 53.056 131.497 55.198 134.791 55.198ZM132.721 49.06C132.793 46.54 133.567 45.892 134.629 45.892C135.817 45.892 136.231 46.864 136.231 48.286C136.231 48.538 136.213 48.808 136.195 49.06H132.721ZM143.914 55.198C145.138 55.198 146.308 54.568 146.902 53.758V54.262C146.902 55.054 147.244 55.198 147.964 55.198C148.702 55.198 149.584 55.036 150.106 54.928V53.902H149.134V40.618L148.63 40.24H148.576L144.868 40.6V41.59L146.632 41.842V44.884C146.254 44.794 145.804 44.74 145.336 44.74C141.844 44.74 139.99 47.278 139.99 50.23C139.99 53.704 141.772 55.198 143.914 55.198ZM144.85 53.704C143.626 53.704 142.654 52.624 142.69 49.942C142.708 46.954 143.824 45.892 145.228 45.892C145.858 45.892 146.47 46.09 146.632 46.324V52.876C146.326 53.272 145.696 53.704 144.85 53.704ZM160.227 55.198C163.953 55.198 165.213 53.02 165.213 51.22C165.213 49.042 163.233 48.016 161.721 47.296C159.957 46.432 158.517 45.802 158.517 44.38C158.517 43.318 159.201 42.562 160.695 42.562C161.559 42.562 162.243 42.832 162.423 43.03L162.801 45.244H164.241L164.349 42.094C163.827 42.058 162.567 41.464 160.623 41.464C157.545 41.464 156.015 43.102 156.015 45.064C156.015 47.512 158.067 48.61 159.471 49.258C161.325 50.086 162.549 50.716 162.549 52.03C162.549 53.254 161.775 54.046 160.137 54.046C159.039 54.046 158.211 53.704 157.923 53.398L157.527 51.076H156.069L155.907 54.406C156.501 54.442 158.067 55.198 160.227 55.198ZM166.339 52.192C166.339 54.154 167.743 55.198 169.381 55.198C170.857 55.198 171.919 54.316 172.387 53.794V54.28C172.387 55.036 172.603 55.198 173.413 55.198C174.133 55.198 175.195 55.036 175.609 54.928V53.92H174.637V48.412C174.637 45.802 173.755 44.776 171.001 44.776C168.967 44.776 167.167 45.784 166.753 46.144L167.311 47.296C167.887 47.026 168.985 46.486 170.353 46.486C171.901 46.486 172.243 47.08 172.243 48.466V48.88C168.985 48.898 166.339 49.906 166.339 52.192ZM170.533 53.704C169.633 53.704 169.021 53.11 169.021 51.94C169.021 50.86 169.975 49.978 172.243 49.978V52.93C171.775 53.344 171.055 53.704 170.533 53.704ZM175.814 46.036L176.552 46.27L180.134 55.144H182.222L185.57 46.27L186.506 46.036V44.992H182.546V46.036L183.68 46.27L182.078 51.22L181.592 53.074L181.016 51.166L179.378 46.27L180.566 46.036V44.992H175.814V46.036ZM189.157 43.354H189.175C190.237 43.354 190.813 42.706 190.813 41.77C190.813 41.05 190.363 40.42 189.337 40.42C188.347 40.42 187.753 41.104 187.753 42.004C187.753 42.76 188.257 43.354 189.157 43.354ZM188.203 53.758L186.943 53.92V55H191.965V53.92L190.759 53.776V45.118L190.255 44.758H190.219L186.925 45.154V46.36L188.203 46.702V53.758ZM194.263 53.758L193.219 53.92V55H197.917V53.92L196.837 53.758V47.206C197.341 46.828 198.187 46.324 199.033 46.324C200.275 46.324 200.563 47.026 200.563 48.808V53.776L199.591 53.92V55H204.235V53.92L203.137 53.776V48.808C203.137 45.928 202.435 44.794 200.257 44.794C198.781 44.794 197.341 45.55 196.585 46.252L196.603 45.82V45.118L196.153 44.758H196.099L193.111 45.136V46.378L194.263 46.702V53.758ZM209.863 59.86C212.797 59.86 215.551 58.33 215.551 56.008C215.551 54.244 214.327 53.344 211.879 53.344H209.953C208.513 53.344 208.009 53.11 208.009 52.318C208.009 52.048 208.153 51.67 208.387 51.364C208.801 51.454 209.287 51.49 209.809 51.49C212.527 51.49 214.183 50.068 214.165 47.89C214.165 47.422 214.057 47.008 213.895 46.666H215.749V44.704H215.119C214.255 44.704 213.445 45.208 213.175 45.55C212.491 45.01 211.447 44.74 210.043 44.74C207.703 44.74 205.615 46 205.615 48.124C205.615 49.492 206.209 50.59 207.577 51.112C206.731 51.508 206.155 52.318 206.155 53.128C206.155 53.812 206.407 54.334 206.983 54.676C206.083 55.09 205.291 56.026 205.291 57.052C205.291 58.636 206.443 59.86 209.863 59.86ZM209.989 50.374C208.711 50.374 208.189 49.456 208.189 48.016C208.189 46.522 208.855 45.82 209.953 45.82C211.105 45.82 211.663 46.504 211.663 48.088C211.663 49.492 211.177 50.374 209.989 50.374ZM210.133 58.618C208.387 58.618 207.793 57.826 207.793 56.584C207.793 55.918 208.009 55.396 208.279 55.036C208.531 55.072 208.801 55.09 209.107 55.09H211.069C212.509 55.09 212.923 55.54 212.923 56.548C212.923 57.916 211.537 58.618 210.133 58.618ZM218.289 52.102H216.795V54.478C217.443 54.658 218.829 55.198 220.521 55.198C223.239 55.198 224.571 53.902 224.571 52.21C224.571 50.356 223.023 49.618 221.475 48.97C220.287 48.466 219.171 48.106 219.171 47.026C219.171 46.288 219.819 45.838 220.791 45.838C221.457 45.838 222.015 46.072 222.141 46.306L222.555 47.674H223.977V45.316C223.419 45.226 222.465 44.776 220.719 44.776C218.361 44.776 216.831 45.946 216.831 47.584C216.831 49.186 217.695 50.086 219.297 50.752C220.917 51.472 222.087 51.868 222.087 52.84C222.087 53.578 221.583 54.118 220.395 54.118C219.675 54.118 218.883 53.812 218.703 53.524L218.289 52.102ZM231.642 53.74L230.22 53.92V55H236.7V53.92L234.288 53.74V50.194C234.432 50.212 235.152 50.248 235.71 50.248C239.022 50.248 241.038 48.484 241.038 45.46C241.038 42.958 239.904 41.536 236.07 41.518C234.63 41.518 233.928 41.626 233.01 41.626H230.292V42.742L231.642 42.976V53.74ZM234.27 49.042V42.724C234.612 42.706 234.954 42.616 235.674 42.616C237.438 42.616 238.338 43.462 238.338 45.514C238.338 48.286 237.114 49.132 235.674 49.132C234.99 49.132 234.522 49.096 234.27 49.042ZM242.21 55H248.024V53.938L245.936 53.776V47.872C246.332 47.584 247.106 47.17 248.222 47.17C248.906 47.17 249.302 47.386 249.536 47.548V44.848C249.392 44.794 249.158 44.74 248.852 44.74C247.052 44.74 245.756 46.378 245.54 46.972H245.486L245.54 45.514V45.118L245.09 44.758H245.036L242.246 45.136V46.378L243.398 46.702V53.794L242.21 53.938V55ZM250.683 50.014C250.683 53.164 252.375 55.198 255.417 55.198C258.009 55.198 260.367 53.506 260.367 49.924C260.367 46.774 258.693 44.74 255.633 44.74C253.041 44.74 250.683 46.504 250.683 50.014ZM255.561 54.028C254.049 54.028 253.437 52.48 253.437 49.834C253.437 47.134 254.193 45.91 255.525 45.91C257.037 45.91 257.595 47.476 257.595 50.104C257.595 52.786 256.875 54.028 255.561 54.028ZM266.359 59.86C269.293 59.86 272.047 58.33 272.047 56.008C272.047 54.244 270.823 53.344 268.375 53.344H266.449C265.009 53.344 264.505 53.11 264.505 52.318C264.505 52.048 264.649 51.67 264.883 51.364C265.297 51.454 265.783 51.49 266.305 51.49C269.023 51.49 270.679 50.068 270.661 47.89C270.661 47.422 270.553 47.008 270.391 46.666H272.245V44.704H271.615C270.751 44.704 269.941 45.208 269.671 45.55C268.987 45.01 267.943 44.74 266.539 44.74C264.199 44.74 262.111 46 262.111 48.124C262.111 49.492 262.705 50.59 264.073 51.112C263.227 51.508 262.651 52.318 262.651 53.128C262.651 53.812 262.903 54.334 263.479 54.676C262.579 55.09 261.787 56.026 261.787 57.052C261.787 58.636 262.939 59.86 266.359 59.86ZM266.485 50.374C265.207 50.374 264.685 49.456 264.685 48.016C264.685 46.522 265.351 45.82 266.449 45.82C267.601 45.82 268.159 46.504 268.159 48.088C268.159 49.492 267.673 50.374 266.485 50.374ZM266.629 58.618C264.883 58.618 264.289 57.826 264.289 56.584C264.289 55.918 264.505 55.396 264.775 55.036C265.027 55.072 265.297 55.09 265.603 55.09H267.565C269.005 55.09 269.419 55.54 269.419 56.548C269.419 57.916 268.033 58.618 266.629 58.618ZM273.201 55H279.015V53.938L276.927 53.776V47.872C277.323 47.584 278.097 47.17 279.213 47.17C279.897 47.17 280.293 47.386 280.527 47.548V44.848C280.383 44.794 280.149 44.74 279.843 44.74C278.043 44.74 276.747 46.378 276.531 46.972H276.477L276.531 45.514V45.118L276.081 44.758H276.027L273.237 45.136V46.378L274.389 46.702V53.794L273.201 53.938V55ZM281.475 52.192C281.475 54.154 282.879 55.198 284.517 55.198C285.993 55.198 287.055 54.316 287.523 53.794V54.28C287.523 55.036 287.739 55.198 288.549 55.198C289.269 55.198 290.331 55.036 290.745 54.928V53.92H289.773V48.412C289.773 45.802 288.891 44.776 286.137 44.776C284.103 44.776 282.303 45.784 281.889 46.144L282.447 47.296C283.023 47.026 284.121 46.486 285.489 46.486C287.037 46.486 287.379 47.08 287.379 48.466V48.88C284.121 48.898 281.475 49.906 281.475 52.192ZM285.669 53.704C284.769 53.704 284.157 53.11 284.157 51.94C284.157 50.86 285.111 49.978 287.379 49.978V52.93C286.911 53.344 286.191 53.704 285.669 53.704ZM291.869 55H296.513V53.92L295.451 53.758V47.206C295.955 46.792 296.783 46.324 297.611 46.324C298.853 46.324 299.105 47.026 299.105 48.808V53.758L298.115 53.92V55H302.813V53.92L301.697 53.758V48.808C301.697 48.16 301.661 47.584 301.571 47.098C302.039 46.738 302.813 46.324 303.551 46.324C304.829 46.324 305.153 47.044 305.153 48.862V53.758L304.217 53.92V55H308.879V53.92L307.709 53.758V48.79C307.709 45.982 306.935 44.794 304.775 44.794C303.461 44.794 302.039 45.442 301.301 46.126C300.887 45.226 300.131 44.794 298.817 44.794C297.737 44.794 295.991 45.478 295.199 46.252V45.496L294.929 44.902L294.713 44.758L291.725 45.136V46.378L292.877 46.702V53.758L291.869 53.92V55Z" fill="#333333"/>
</svg>
