<svg width="1000" height="154" viewBox="0 0 1000 154" fill="none" xmlns="http://www.w3.org/2000/svg">
<rect width="1000" height="154" rx="20" fill="#F9F9F9"/>
<path d="M874.5 97.8182H872.357V104.222H872.268L867.873 97.8182H865.984V108H868.136V101.592H868.211L872.641 108H874.5V97.8182ZM876.278 108H883.159V106.225H878.431V103.794H882.786V102.019H878.431V99.593H883.139V97.8182H876.278V108ZM886.869 97.8182H884.428L887.555 102.909L884.369 108H886.834L888.922 104.525H889.002L891.09 108H893.566L890.389 102.909L893.496 97.8182H891.065L889.002 101.288H888.922L886.869 97.8182ZM894.471 99.593H897.588V108H899.716V99.593H902.833V97.8182H894.471V99.593ZM912.974 100.746H915.037C915.007 98.9318 913.516 97.679 911.249 97.679C909.016 97.679 907.381 98.9119 907.391 100.761C907.386 102.263 908.445 103.123 910.165 103.536L911.274 103.814C912.382 104.082 912.999 104.401 913.004 105.087C912.999 105.832 912.293 106.339 911.199 106.339C910.08 106.339 909.275 105.822 909.205 104.803H907.122C907.177 107.006 908.753 108.144 911.224 108.144C913.71 108.144 915.171 106.956 915.176 105.092C915.171 103.396 913.894 102.496 912.124 102.099L911.209 101.88C910.324 101.676 909.583 101.348 909.598 100.617C909.598 99.9609 910.18 99.4787 911.234 99.4787C912.263 99.4787 912.894 99.946 912.974 100.746ZM916.236 99.593H919.354V108H921.481V99.593H924.599V97.8182H916.236V99.593ZM925.976 108H932.856V106.225H928.128V103.794H932.484V102.019H928.128V99.593H932.837V97.8182H925.976V108ZM934.548 108H936.701V104.699H938.51C940.852 104.699 942.214 103.302 942.214 101.268C942.214 99.245 940.877 97.8182 938.565 97.8182H934.548V108ZM936.701 102.974V99.5781H938.152C939.395 99.5781 939.997 100.254 939.997 101.268C939.997 102.278 939.395 102.974 938.162 102.974H936.701ZM949.136 100.746H951.199C951.169 98.9318 949.678 97.679 947.411 97.679C945.179 97.679 943.543 98.9119 943.553 100.761C943.548 102.263 944.607 103.123 946.327 103.536L947.436 103.814C948.544 104.082 949.161 104.401 949.166 105.087C949.161 105.832 948.455 106.339 947.361 106.339C946.242 106.339 945.437 105.822 945.367 104.803H943.284C943.339 107.006 944.915 108.144 947.386 108.144C949.872 108.144 951.333 106.956 951.338 105.092C951.333 103.396 950.056 102.496 948.286 102.099L947.371 101.88C946.486 101.676 945.745 101.348 945.76 100.617C945.76 99.9609 946.342 99.4787 947.396 99.4787C948.425 99.4787 949.056 99.946 949.136 100.746Z" fill="#084FAA"/>
<path d="M618.968 91H621.121V87.3906H622.692L624.621 91H626.997L624.834 87.0426C625.993 86.5455 626.634 85.5362 626.634 84.1442C626.634 82.1207 625.297 80.8182 622.985 80.8182H618.968V91ZM621.121 85.6605V82.5781H622.572C623.815 82.5781 624.417 83.13 624.417 84.1442C624.417 85.1534 623.815 85.6605 622.582 85.6605H621.121ZM629.91 91L630.666 88.6783H634.34L635.096 91H637.403L633.893 80.8182H631.119L627.604 91H629.91ZM631.213 86.9979L632.466 83.1449H632.545L633.798 86.9979H631.213ZM638.628 91H640.781V87.6989H642.59C644.932 87.6989 646.294 86.3018 646.294 84.2685C646.294 82.245 644.957 80.8182 642.645 80.8182H638.628V91ZM640.781 85.9737V82.5781H642.233C643.475 82.5781 644.077 83.2543 644.077 84.2685C644.077 85.2777 643.475 85.9737 642.242 85.9737H640.781ZM649.845 80.8182H647.693V91H649.845V80.8182ZM655.226 91C658.328 91 660.207 89.081 660.207 85.8991C660.207 82.7273 658.328 80.8182 655.256 80.8182H651.616V91H655.226ZM653.769 89.1555V82.6626H655.141C657.05 82.6626 658.06 83.6371 658.06 85.8991C658.06 88.1712 657.05 89.1555 655.136 89.1555H653.769ZM589.594 108H591.747V104.699H593.556C595.898 104.699 597.26 103.302 597.26 101.268C597.26 99.245 595.923 97.8182 593.611 97.8182H589.594V108ZM591.747 102.974V99.5781H593.198C594.441 99.5781 595.043 100.254 595.043 101.268C595.043 102.278 594.441 102.974 593.208 102.974H591.747ZM598.658 108H600.811V104.391H602.382L604.311 108H606.688L604.525 104.043C605.683 103.545 606.325 102.536 606.325 101.144C606.325 99.1207 604.987 97.8182 602.675 97.8182H598.658V108ZM600.811 102.661V99.5781H602.263C603.506 99.5781 604.107 100.13 604.107 101.144C604.107 102.153 603.506 102.661 602.273 102.661H600.811ZM617.202 102.909C617.202 99.5781 615.134 97.679 612.435 97.679C609.72 97.679 607.667 99.5781 607.667 102.909C607.667 106.225 609.72 108.139 612.435 108.139C615.134 108.139 617.202 106.24 617.202 102.909ZM615.02 102.909C615.02 105.067 613.996 106.235 612.435 106.235C610.869 106.235 609.849 105.067 609.849 102.909C609.849 100.751 610.869 99.5831 612.435 99.5831C613.996 99.5831 615.02 100.751 615.02 102.909ZM617.958 99.593H621.075V108H623.203V99.593H626.32V97.8182H617.958V99.593ZM636.603 102.909C636.603 99.5781 634.535 97.679 631.835 97.679C629.121 97.679 627.067 99.5781 627.067 102.909C627.067 106.225 629.121 108.139 631.835 108.139C634.535 108.139 636.603 106.24 636.603 102.909ZM634.42 102.909C634.42 105.067 633.396 106.235 631.835 106.235C630.269 106.235 629.25 105.067 629.25 102.909C629.25 100.751 630.269 99.5831 631.835 99.5831C633.396 99.5831 634.42 100.751 634.42 102.909ZM637.358 99.593H640.476V108H642.604V99.593H645.721V97.8182H637.358V99.593ZM646.501 97.8182L650.215 104.401V108L652.353 108V104.401L656.067 97.8182H653.655L651.334 102.203H651.234L648.912 97.8182H646.501ZM657.242 108H659.395V104.699H661.205C663.546 104.699 664.909 103.302 664.909 101.268C664.909 99.245 663.571 97.8182 661.259 97.8182H657.242V108ZM659.395 102.974V99.5781H660.847C662.09 99.5781 662.691 100.254 662.691 101.268C662.691 102.278 662.09 102.974 660.857 102.974H659.395ZM668.46 97.8182H666.307V108H668.46V97.8182ZM678.747 97.8182H676.604V104.222H676.515L672.12 97.8182H670.231V108H672.383V101.592H672.458L676.888 108H678.747V97.8182ZM687.277 101.109H689.464C689.186 99.0959 687.411 97.679 685.109 97.679C682.42 97.679 680.347 99.6179 680.347 102.919C680.347 106.141 682.286 108.139 685.154 108.139C687.724 108.139 689.559 106.513 689.559 103.834V102.551H685.298V104.172H687.486C687.456 105.435 686.596 106.235 685.164 106.235C683.548 106.235 682.529 105.027 682.529 102.899C682.529 100.781 683.588 99.5831 685.144 99.5831C686.253 99.5831 687.004 100.155 687.277 101.109Z" fill="#084FAA"/>
<path d="M744.335 40C748.324 40 750.74 37.5327 750.74 33.4418C750.74 29.3636 748.324 26.9091 744.373 26.9091H739.694V40H744.335ZM742.462 37.6286V29.2805H744.226C746.681 29.2805 747.979 30.5334 747.979 33.4418C747.979 36.3629 746.681 37.6286 744.22 37.6286H742.462ZM752.79 40L761.637 40V37.718H755.558V34.5923H761.157V32.3104H755.558V29.1911H761.611V26.9091H752.79V40ZM770.913 30.674H773.566C773.528 28.3409 771.61 26.7301 768.695 26.7301C765.825 26.7301 763.722 28.3153 763.735 30.6932C763.729 32.6236 765.09 33.7294 767.302 34.2599L768.727 34.6179C770.153 34.9631 770.945 35.3722 770.952 36.2543C770.945 37.2131 770.037 37.8651 768.631 37.8651C767.193 37.8651 766.157 37.2003 766.068 35.8899H763.39C763.46 38.7216 765.486 40.1854 768.663 40.1854C771.859 40.1854 773.738 38.6577 773.745 36.2607C773.738 34.081 772.096 32.924 769.82 32.4126L768.644 32.1314C767.506 31.8693 766.554 31.4474 766.573 30.5078C766.573 29.6641 767.321 29.044 768.676 29.044C769.999 29.044 770.811 29.6449 770.913 30.674ZM778.374 26.9091H775.607V40H778.374V26.9091ZM789.332 31.1406L792.144 31.1406C791.786 28.5518 789.504 26.7301 786.545 26.7301C783.087 26.7301 780.421 29.223 780.421 33.4673C780.421 37.6094 782.914 40.179 786.602 40.179C789.907 40.179 792.266 38.0888 792.266 34.6435V32.9943L786.788 32.9943V35.0781H789.6C789.562 36.7017 788.456 37.7308 786.615 37.7308C784.538 37.7308 783.227 36.1776 783.227 33.4418C783.227 30.7187 784.589 29.1783 786.59 29.1783C788.015 29.1783 788.98 29.9134 789.332 31.1406ZM805.294 26.9091H802.539V35.142H802.424L796.774 26.9091H794.345V40H797.113V31.7607H797.208L802.904 40H805.294V26.9091ZM742.665 52.674H745.318C745.279 50.3409 743.362 48.7301 740.447 48.7301C737.577 48.7301 735.474 50.3153 735.487 52.6932C735.48 54.6236 736.842 55.7294 739.054 56.2599L740.479 56.6179C741.904 56.9631 742.697 57.3722 742.703 58.2543C742.697 59.2131 741.789 59.8651 740.383 59.8651C738.945 59.8651 737.909 59.2003 737.82 57.8899H735.142C735.212 60.7216 737.238 62.1854 740.415 62.1854C743.611 62.1854 745.49 60.6577 745.497 58.2607C745.49 56.081 743.848 54.924 741.572 54.4126L740.396 54.1314C739.258 53.8693 738.306 53.4474 738.325 52.5078C738.325 51.6641 739.073 51.044 740.428 51.044C741.751 51.044 742.563 51.6449 742.665 52.674ZM746.591 48.9091L751.366 57.3722V62H754.115V57.3722L758.89 48.9091H755.79L752.805 54.5469H752.677L749.692 48.9091H746.591ZM767.503 52.674H770.156C770.117 50.3409 768.2 48.7301 765.285 48.7301C762.415 48.7301 760.312 50.3153 760.325 52.6932C760.318 54.6236 761.68 55.7294 763.892 56.2599L765.317 56.6179C766.742 56.9631 767.535 57.3722 767.541 58.2543C767.535 59.2131 766.627 59.8651 765.221 59.8651C763.783 59.8651 762.747 59.2003 762.658 57.8899H759.98C760.05 60.7216 762.076 62.1854 765.253 62.1854C768.449 62.1854 770.328 60.6577 770.335 58.2607C770.328 56.081 768.686 54.924 766.41 54.4126L765.234 54.1314C764.096 53.8693 763.144 53.4474 763.163 52.5078C763.163 51.6641 763.911 51.044 765.266 51.044C766.589 51.044 767.401 51.6449 767.503 52.674ZM771.698 51.1911H775.706V62H778.441V51.1911H782.449V48.9091H771.698V51.1911ZM784.22 62H793.066V59.718H786.988V56.5923H792.587V54.3104H786.988V51.1911H793.041V48.9091H784.22V62ZM795.241 48.9091V62L797.926 62V53.4474H798.035L801.422 61.9361H803.251L806.638 53.4794H806.747V62H809.432V48.9091H806.018L802.413 57.7045H802.26L798.655 48.9091H795.241Z" fill="#084FAA"/>
<line x1="25" y1="131.5" x2="970" y2="131.5" stroke="#084FAA"/>
<path d="M437.702 28.9091L434.935 28.9091L434.935 42L437.702 42L437.702 28.9091ZM450.929 28.9091L448.174 28.9091V37.142H448.059L442.409 28.9091L439.98 28.9091L439.98 42H442.747L442.747 33.7607H442.843L448.539 42H450.929L450.929 28.9091ZM453.216 42L455.984 42L455.984 36.5923L461.308 36.5923V34.3104L455.984 34.3104V31.1911L461.884 31.1911V28.9091L453.216 28.9091L453.216 42ZM475.775 35.4545C475.775 31.1719 473.116 28.7301 469.645 28.7301C466.155 28.7301 463.515 31.1719 463.515 35.4545C463.515 39.718 466.155 42.179 469.645 42.179C473.116 42.179 475.775 39.7372 475.775 35.4545ZM472.969 35.4545C472.969 38.2287 471.652 39.7308 469.645 39.7308C467.632 39.7308 466.321 38.2287 466.321 35.4545C466.321 32.6804 467.632 31.1783 469.645 31.1783C471.652 31.1783 472.969 32.6804 472.969 35.4545ZM477.825 42L480.593 42V37.3594H482.613L485.093 42L488.148 42L485.368 36.9119C486.857 36.2727 487.682 34.9751 487.682 33.1854C487.682 30.5838 485.962 28.9091 482.99 28.9091L477.825 28.9091V42ZM480.593 35.1349V31.1719L482.46 31.1719C484.058 31.1719 484.831 31.8814 484.831 33.1854C484.831 34.483 484.058 35.1349 482.472 35.1349H480.593ZM489.638 28.9091V42H492.322V33.4474H492.431L495.819 41.9361H497.647L501.035 33.4794H501.143V42L503.828 42V28.9091L500.415 28.9091L496.81 37.7045H496.656L493.051 28.9091L489.638 28.9091ZM508.365 42L509.336 39.0149L514.06 39.0149L515.032 42H517.998L513.485 28.9091L509.918 28.9091L505.399 42H508.365ZM510.04 36.8544L511.65 31.9006H511.753L513.363 36.8544L510.04 36.8544ZM517.458 31.1911L521.465 31.1911V42H524.201V31.1911L528.209 31.1911V28.9091L517.458 28.9091V31.1911ZM532.747 28.9091L529.98 28.9091V42H532.747V28.9091ZM547.054 35.4545C547.054 31.1719 544.395 28.7301 540.924 28.7301C537.434 28.7301 534.794 31.1719 534.794 35.4545C534.794 39.718 537.434 42.179 540.924 42.179C544.395 42.179 547.054 39.7372 547.054 35.4545ZM544.248 35.4545C544.248 38.2287 542.931 39.7308 540.924 39.7308C538.911 39.7308 537.6 38.2287 537.6 35.4545C537.6 32.6804 538.911 31.1783 540.924 31.1783C542.931 31.1783 544.248 32.6804 544.248 35.4545ZM560.054 28.9091L557.299 28.9091V37.142H557.184L551.534 28.9091L549.105 28.9091V42L551.872 42V33.7607H551.968L557.664 42L560.054 42V28.9091ZM429.966 64L430.938 61.0149L435.662 61.0149L436.633 64H439.599L435.086 50.9091H431.52L427.001 64H429.966ZM431.641 58.8544L433.252 53.9006H433.354L434.965 58.8544L431.641 58.8544ZM441.175 64H443.943V59.3594H445.963L448.443 64L451.498 64L448.718 58.9119C450.207 58.2727 451.031 56.9751 451.031 55.1854C451.031 52.5838 449.312 50.9091 446.34 50.9091L441.175 50.9091V64ZM443.943 57.1349V53.1719L445.809 53.1719C447.407 53.1719 448.181 53.8814 448.181 55.1854C448.181 56.483 447.407 57.1349 445.822 57.1349H443.943ZM464.538 55.4922C464.173 52.4688 461.885 50.7301 458.855 50.7301C455.397 50.7301 452.757 53.1719 452.757 57.4545C452.757 61.7244 455.352 64.179 458.855 64.179C462.211 64.179 464.237 61.9482 464.538 59.5384L461.738 59.5256C461.476 60.9254 460.377 61.7308 458.9 61.7308C456.912 61.7308 455.563 60.2543 455.563 57.4545C455.563 54.7315 456.893 53.1783 458.919 53.1783C460.434 53.1783 461.527 54.054 461.738 55.4922L464.538 55.4922ZM466.523 64L469.29 64V58.5923L474.909 58.5923V64H477.67V50.9091L474.909 50.9091V56.3104L469.29 56.3104V50.9091L466.523 50.9091V64ZM482.72 50.9091H479.952V64H482.72V50.9091ZM484.499 53.1911L488.506 53.1911V64H491.242V53.1911L495.25 53.1911V50.9091L484.499 50.9091V53.1911ZM497.021 64L505.867 64V61.718L499.788 61.718V58.5923L505.388 58.5923V56.3104L499.788 56.3104V53.1911L505.842 53.1911V50.9091L497.021 50.9091V64ZM519.593 55.4922C519.228 52.4688 516.94 50.7301 513.91 50.7301C510.452 50.7301 507.812 53.1719 507.812 57.4545C507.812 61.7244 510.407 64.179 513.91 64.179C517.266 64.179 519.292 61.9482 519.593 59.5384L516.793 59.5256C516.531 60.9254 515.431 61.7308 513.955 61.7308C511.967 61.7308 510.618 60.2543 510.618 57.4545C510.618 54.7315 511.948 53.1783 513.974 53.1783C515.489 53.1783 516.582 54.054 516.793 55.4922L519.593 55.4922ZM521.079 53.1911H525.086L525.086 64H527.822L527.822 53.1911L531.83 53.1911V50.9091L521.079 50.9091V53.1911ZM541.687 50.9091V59.174C541.687 60.6697 540.638 61.75 539.028 61.75C537.423 61.75 536.368 60.6697 536.368 59.174V50.9091L533.601 50.9091V59.4105C533.601 62.2741 535.761 64.1854 539.028 64.1854C542.281 64.1854 544.454 62.2741 544.454 59.4105V50.9091L541.687 50.9091ZM546.732 64H549.499L549.499 59.3594L551.519 59.3594L553.999 64H557.055L554.274 58.9119C555.763 58.2727 556.588 56.9751 556.588 55.1854C556.588 52.5838 554.869 50.9091 551.896 50.9091L546.732 50.9091L546.732 64ZM549.499 57.1349V53.1719H551.366C552.964 53.1719 553.737 53.8814 553.737 55.1854C553.737 56.483 552.964 57.1349 551.379 57.1349L549.499 57.1349ZM558.544 64L567.391 64V61.718L561.312 61.718V58.5923L566.911 58.5923V56.3104L561.312 56.3104V53.1911L567.365 53.1911V50.9091L558.544 50.9091V64Z" fill="#084FAA"/>
<path d="M29.4943 107C32.5966 107 34.4759 105.081 34.4759 101.899C34.4759 98.7273 32.5966 96.8182 29.5241 96.8182L25.8849 96.8182L25.8849 107H29.4943ZM28.0376 105.156L28.0376 98.6626L29.4098 98.6626C31.3189 98.6626 32.3281 99.6371 32.3281 101.899C32.3281 104.171 31.3189 105.156 29.4048 105.156H28.0376ZM38.2232 96.8182L36.0705 96.8182L36.0705 107L38.2232 107L38.2232 96.8182ZM45.5178 99.7464L47.581 99.7464C47.5511 97.9318 46.0597 96.679 43.7926 96.679C41.5604 96.679 39.9247 97.9119 39.9347 99.7614C39.9297 101.263 40.9886 102.123 42.7088 102.536L43.8175 102.814C44.9261 103.082 45.5426 103.401 45.5476 104.087C45.5426 104.832 44.8366 105.339 43.7429 105.339C42.6243 105.339 41.8189 104.822 41.7493 103.803H39.6662C39.7209 106.006 41.2969 107.144 43.7678 107.144C46.2536 107.144 47.7152 105.956 47.7202 104.092C47.7152 102.396 46.4375 101.496 44.6676 101.099L43.7528 100.88C42.8679 100.676 42.1271 100.348 42.142 99.6172C42.142 98.9609 42.7237 98.4787 43.7777 98.4787C44.8068 98.4787 45.4382 98.946 45.5178 99.7464ZM58.1518 100.383C57.8684 98.0313 56.0886 96.679 53.7321 96.679C51.0424 96.679 48.9892 98.5781 48.9892 101.909C48.9892 105.23 51.0076 107.139 53.7321 107.139C56.3422 107.139 57.9181 105.404 58.1518 103.53L55.9743 103.52C55.7704 104.609 54.9153 105.235 53.7669 105.235C52.2207 105.235 51.1717 104.087 51.1717 101.909C51.1717 99.7912 52.2058 98.5831 53.7818 98.5831C54.96 98.5831 55.8102 99.2642 55.9743 100.383H58.1518ZM69.052 101.909C69.052 98.5781 66.9838 96.679 64.2843 96.679C61.5698 96.679 59.5165 98.5781 59.5165 101.909C59.5165 105.225 61.5698 107.139 64.2843 107.139C66.9838 107.139 69.052 105.24 69.052 101.909ZM66.8695 101.909C66.8695 104.067 65.8453 105.235 64.2843 105.235C62.7182 105.235 61.699 104.067 61.699 101.909C61.699 99.7514 62.7182 98.5831 64.2843 98.5831C65.8453 98.5831 66.8695 99.7514 66.8695 101.909ZM71.9119 96.8182L69.5206 96.8182L73.0355 107H75.8097L79.3196 96.8182L76.9332 96.8182L74.4673 104.554H74.3729L71.9119 96.8182ZM80.5451 107L87.4258 107V105.225L82.6978 105.225L82.6978 102.794L87.0529 102.794V101.019L82.6978 101.019L82.6978 98.593L87.4059 98.593V96.8182L80.5451 96.8182L80.5451 107ZM89.1174 107H91.2701L91.2701 103.391H92.8411L94.7701 107L97.1465 107L94.9838 103.043C96.1422 102.545 96.7836 101.536 96.7836 100.144C96.7836 98.1207 95.4462 96.8182 93.1344 96.8182H89.1174L89.1174 107ZM91.2701 101.661V98.5781H92.7218C93.9647 98.5781 94.5662 99.13 94.5662 100.144C94.5662 101.153 93.9647 101.661 92.7317 101.661H91.2701Z" fill="#084FAA"/>
<path d="M119.691 63L122.459 63V58.3594L124.479 58.3594L126.959 63L130.015 63L127.234 57.9119C128.723 57.2727 129.548 55.9751 129.548 54.1854C129.548 51.5838 127.829 49.9091 124.856 49.9091L119.691 49.9091L119.691 63ZM122.459 56.1349V52.1719L124.326 52.1719C125.924 52.1719 126.697 52.8814 126.697 54.1854C126.697 55.483 125.924 56.1349 124.339 56.1349L122.459 56.1349ZM131.504 63L140.351 63V60.718L134.272 60.718V57.5923L139.871 57.5923V55.3104L134.272 55.3104L134.272 52.1911L140.325 52.1911V49.9091L131.504 49.9091L131.504 63ZM149.627 53.674H152.28C152.241 51.3409 150.324 49.7301 147.409 49.7301C144.539 49.7301 142.436 51.3153 142.449 53.6932C142.442 55.6236 143.804 56.7294 146.016 57.2599L147.441 57.6179C148.866 57.9631 149.659 58.3722 149.665 59.2543C149.659 60.2131 148.751 60.8651 147.345 60.8651C145.907 60.8651 144.871 60.2003 144.782 58.8899H142.104C142.174 61.7216 144.2 63.1854 147.377 63.1854C150.573 63.1854 152.452 61.6577 152.459 59.2607C152.452 57.081 150.81 55.924 148.534 55.4126L147.358 55.1314C146.22 54.8693 145.268 54.4474 145.287 53.5078C145.287 52.6641 146.035 52.044 147.39 52.044C148.713 52.044 149.525 52.6449 149.627 53.674ZM154.32 63L163.167 63V60.718L157.088 60.718V57.5923L162.688 57.5923L162.688 55.3104L157.088 55.3104V52.1911L163.141 52.1911V49.9091L154.32 49.9091L154.32 63ZM167.598 63L168.57 60.0149L173.294 60.0149L174.265 63H177.231L172.718 49.9091L169.152 49.9091L164.632 63H167.598ZM169.273 57.8544L170.884 52.9006H170.986L172.597 57.8544L169.273 57.8544ZM178.807 63L181.574 63V58.3594L183.594 58.3594L186.074 63L189.13 63L186.349 57.9119C187.839 57.2727 188.663 55.9751 188.663 54.1854C188.663 51.5838 186.944 49.9091 183.972 49.9091L178.807 49.9091L178.807 63ZM181.574 56.1349L181.574 52.1719L183.441 52.1719C185.039 52.1719 185.812 52.8814 185.812 54.1854C185.812 55.483 185.039 56.1349 183.454 56.1349L181.574 56.1349ZM202.17 54.4922C201.805 51.4688 199.517 49.7301 196.487 49.7301C193.029 49.7301 190.389 52.1719 190.389 56.4545C190.389 60.7244 192.984 63.179 196.487 63.179C199.843 63.179 201.869 60.9482 202.17 58.5384L199.37 58.5256C199.108 59.9254 198.008 60.7308 196.532 60.7308C194.544 60.7308 193.195 59.2543 193.195 56.4545C193.195 53.7315 194.525 52.1783 196.551 52.1783C198.066 52.1783 199.159 53.054 199.37 54.4922H202.17ZM204.154 63L206.922 63V57.5923L212.541 57.5923V63L215.302 63L215.302 49.9091L212.541 49.9091V55.3104L206.922 55.3104V49.9091L204.154 49.9091L204.154 63Z" fill="#084FAA"/>
<path d="M243.541 98.593L246.658 98.593L246.658 107H248.786L248.786 98.593H251.903V96.8182L243.541 96.8182V98.593ZM253.778 107L254.533 104.678H258.207L258.963 107H261.27L257.76 96.8182H254.986L251.471 107L253.778 107ZM255.08 102.998L256.333 99.1449H256.413L257.665 102.998H255.08ZM262.495 107H264.648V103.391H266.219L268.148 107L270.524 107L268.362 103.043C269.52 102.545 270.161 101.536 270.161 100.144C270.161 98.1207 268.824 96.8182 266.512 96.8182H262.495V107ZM264.648 101.661V98.5781H266.1C267.343 98.5781 267.944 99.13 267.944 100.144C267.944 101.153 267.343 101.661 266.11 101.661H264.648ZM278.434 100.109L280.622 100.109C280.343 98.0959 278.568 96.679 276.267 96.679C273.577 96.679 271.504 98.6179 271.504 101.919C271.504 105.141 273.443 107.139 276.311 107.139C278.882 107.139 280.716 105.513 280.716 102.834V101.551L276.456 101.551V103.172H278.643C278.613 104.435 277.753 105.235 276.321 105.235C274.706 105.235 273.686 104.027 273.686 101.899C273.686 99.7813 274.745 98.5831 276.301 98.5831C277.41 98.5831 278.161 99.1548 278.434 100.109ZM282.333 107L289.214 107V105.225L284.486 105.225V102.794L288.841 102.794V101.019L284.486 101.019V98.593L289.194 98.593V96.8182L282.333 96.8182V107ZM290.518 98.593H293.635V107L295.763 107V98.593H298.88V96.8182L290.518 96.8182V98.593ZM302.41 96.8182H300.257V107H302.41V96.8182ZM312.697 96.8182L310.554 96.8182V103.222H310.465L306.07 96.8182H304.181V107H306.334V100.592H306.408L310.838 107L312.697 107V96.8182ZM321.227 100.109H323.415C323.136 98.0959 321.361 96.679 319.06 96.679C316.37 96.679 314.297 98.6179 314.297 101.919C314.297 105.141 316.236 107.139 319.104 107.139C321.675 107.139 323.509 105.513 323.509 102.834V101.551H319.248V103.172H321.436C321.406 104.435 320.546 105.235 319.114 105.235C317.498 105.235 316.479 104.027 316.479 101.899C316.479 99.7813 317.538 98.5831 319.094 98.5831C320.203 98.5831 320.954 99.1548 321.227 100.109ZM328.366 107L330.519 107V102.794H334.66V101.019H330.519V98.593H335.108V96.8182H328.366V107ZM336.556 107H343.437V105.225H338.709V102.794H343.064V101.019H338.709V98.593H343.417V96.8182H336.556V107ZM346.883 107L347.639 104.678H351.313L352.068 107L354.375 107L350.865 96.8182H348.091L344.576 107L346.883 107ZM348.186 102.998L349.438 99.1449H349.518L350.771 102.998H348.186ZM353.955 98.593H357.072V107H359.2V98.593L362.317 98.593V96.8182L353.955 96.8182V98.593ZM369.984 96.8182V103.246C369.984 104.41 369.168 105.25 367.915 105.25C366.668 105.25 365.847 104.41 365.847 103.246V96.8182H363.695V103.43C363.695 105.658 365.375 107.144 367.915 107.144C370.446 107.144 372.136 105.658 372.136 103.43V96.8182H369.984ZM373.907 107H376.06V103.391H377.631L379.56 107H381.937L379.774 103.043C380.932 102.545 381.574 101.536 381.574 100.144C381.574 98.1207 380.236 96.8182 377.924 96.8182L373.907 96.8182V107ZM376.06 101.661V98.5781H377.512C378.755 98.5781 379.356 99.13 379.356 100.144C379.356 101.153 378.755 101.661 377.522 101.661H376.06ZM383.095 107L389.976 107V105.225L385.248 105.225V102.794L389.603 102.794V101.019L385.248 101.019V98.593L389.956 98.593V96.8182L383.095 96.8182V107ZM397.191 99.7464H399.254C399.224 97.9318 397.733 96.679 395.465 96.679C393.233 96.679 391.598 97.9119 391.608 99.7614C391.603 101.263 392.661 102.123 394.382 102.536L395.49 102.814C396.599 103.082 397.215 103.401 397.22 104.087C397.215 104.832 396.509 105.339 395.416 105.339C394.297 105.339 393.492 104.822 393.422 103.803H391.339C391.394 106.006 392.97 107.144 395.441 107.144C397.926 107.144 399.388 105.956 399.393 104.092C399.388 102.396 398.11 101.496 396.34 101.099L395.426 100.88C394.541 100.676 393.8 100.348 393.815 99.6172C393.815 98.9609 394.397 98.4787 395.451 98.4787C396.48 98.4787 397.111 98.946 397.191 99.7464Z" fill="#084FAA"/>
<line x1="63.5" y1="115" x2="63.5" y2="132" stroke="#084FAA"/>
<line x1="321.5" y1="115" x2="321.5" y2="132" stroke="#084FAA"/>
<line x1="639.5" y1="115" x2="639.5" y2="132" stroke="#084FAA"/>
<line x1="908.5" y1="115" x2="908.5" y2="132" stroke="#084FAA"/>
<line x1="167.5" y1="70" x2="167.5" y2="132" stroke="#084FAA"/>
<line x1="497.5" y1="70" x2="497.5" y2="132" stroke="#084FAA"/>
<line x1="772.5" y1="70" x2="772.5" y2="132" stroke="#084FAA"/>
<circle cx="63.5" cy="114.5" r="3.5" fill="#49452A"/>
<circle cx="63.5" cy="114.5" r="3.5" fill="#F19305"/>
<circle cx="321.5" cy="114.5" r="3.5" fill="#F19305"/>
<circle cx="639.5" cy="114.5" r="3.5" fill="#F19305"/>
<circle cx="908.5" cy="114.5" r="3.5" fill="#F19305"/>
<circle cx="772.5" cy="71.5" r="3.5" fill="#F19305"/>
<circle cx="497.5" cy="71.5" r="3.5" fill="#F19305"/>
<circle cx="167.5" cy="71.5" r="3.5" fill="#F19305"/>
</svg>
