<?xml version="1.0" encoding="UTF-8"?>
<svg width="182px" height="38px" viewBox="0 0 182 38" version="1.1" xmlns="http://www.w3.org/2000/svg" xmlns:xlink="http://www.w3.org/1999/xlink">
    <title>Group 30 Copy 4</title>
    <g id="Page-1" stroke="none" stroke-width="1" fill="none" fill-rule="evenodd">
        <g id="Group-30-Copy-4">
            <g id="Asset-10">
                <path d="M42,13.4390244 C41.934917,13.9170233 41.8416853,14.3918861 41.7206628,14.8617886 C40.74535,18.6849593 37.9330402,21.7256098 35,24.4390244 L35,20.1544715 C35.9662312,19.1281157 36.8033719,18.0169263 37.4974636,16.8394309 C38.091225,15.7655203 38.5079196,14.6258497 38.7355428,13.453252 L42,13.4390244 Z" id="Path"></path>
                <path d="M41.9350162,13.4388989 L38.9412682,13.4388989 C39.1203506,12.3219804 39.1002604,11.1827261 38.9412682,10.0624025 C38.6575596,8.1917539 37.8584107,6.5192005 36.7365703,5.47019662 C35.2205698,4.03400675 33.0960033,3.6918424 31.5648427,3.66933159 C29.6286935,3.66933159 27.6665556,4.1488119 25.5982977,5.12803226 C25.2968354,4.08519701 24.7471026,3.13828069 24,2.37495984 C25.535492,1.5983368 27.086144,0.947774304 28.7948932,0.625869679 C29.529441,0.500834235 30.2725844,0.438346722 31.0169168,0.43898309 C34.603341,0.43898309 37.8497478,1.80768736 39.7035999,4.09928811 C40.7604689,5.40491526 41.4903149,7.16075867 41.8108407,9.17772751 C42.0296279,10.5818239 42.1613162,11.6710899 42,13.0835657 L41.9350162,13.4388989 Z" id="Path" fill="#FDB953" fill-rule="nonzero"></path>
                <path d="M32.1237144,12.1810935 C31.5183745,11.6400946 30.8108178,11.2218988 30.0414512,10.950388 C29.2026209,10.6535171 28.3171032,10.5052405 27.4258441,10.5124145 C26.0510023,10.5124145 24.9754255,10.7160722 24.1991139,11.1233876 C23.4579582,11.4920128 22.8263257,12.043518 22.3657445,12.7241806 L22.3657445,12.7241806 L22.3657445,11.57888 L22.3657445,11.57888 L22.3657445,9.80727723 C22.3657445,7.20352486 21.8968464,5.23702392 20.4945966,3.90777439 C19.0466396,2.49256173 17.2524011,1.46973037 15.2856051,0.938314163 C13.968297,0.630750617 12.6213013,0.463362582 11.2677483,0.43902439 C7.58767582,0.43902439 4.25649913,1.77046378 2.35423946,3.99974882 C1.26977367,5.26987193 0.523092301,6.97796852 0.191974672,8.94008973 C-0.112989194,10.8238446 -0.0541796827,12.7474094 0.365311417,14.6096565 C1.30088539,18.8142019 4.03205027,22.1406106 6.84543898,25.1078809 C11.156635,29.6365268 16.0456201,33.5169718 20.7701576,37.2704046 L20.9923841,37.4390244 L21.2034994,37.2704046 C23.890219,35.1396636 26.6280506,32.9651252 29.2814362,30.6548151 L29.2814362,26.5225353 C28.3347509,27.3984823 27.341398,28.2744292 26.2902662,29.1503762 C24.6546785,30.5562711 22.9168665,31.9468369 21.2390557,33.2892256 C21.0961671,33.4019601 20.8930457,33.4019601 20.7501572,33.2892256 C19.0701241,31.9424572 17.3323121,30.5518913 15.6922798,29.1438066 C13.266963,27.1041162 10.9546912,24.9373999 8.76547678,22.6530395 C7.21877967,21.0369174 5.49207901,19.0528975 4.33427844,16.7403975 C3.20981186,14.3709609 2.79647039,11.9708662 3.13647708,9.79413803 C3.42759392,7.9743582 4.24761007,6.3472867 5.4009661,5.32461861 C6.95655228,3.92967306 9.13437293,3.59681322 10.6966259,3.57272467 L10.6966259,3.57272467 C12.1255429,3.57272467 13.1922306,3.81142022 14.6722597,4.30195053 C16.5989643,4.94139181 18.8367862,6.76336151 18.8367862,10.0153146 L18.8367862,10.6722749 L18.8367862,10.6722749 L18.8367862,27.9875566 L22.3501887,27.9875566 L22.3501887,17.0644979 C22.35334,16.1402149 22.7299992,15.2552436 23.3968759,14.6052768 C23.7645098,14.2512119 24.2026206,13.976072 24.6835679,13.7972157 C25.8597949,13.3964226 27.1385236,13.3964226 28.3147505,13.7972157 C28.7860213,13.975819 29.2132854,14.2512834 29.5681085,14.6052768 C29.8890597,14.928673 30.1301099,15.3205698 30.2725668,15.7505774 C30.4110515,16.1751956 30.4815283,16.6184895 30.4814598,17.0644979 L30.4814598,27.9875566 L33.9993069,27.9875566 L33.9993069,16.6966001 C34.0122546,15.8132963 33.8436835,14.9365446 33.5037416,14.1191262 C33.1910609,13.3825413 32.72027,12.7213889 32.1237144,12.1810935 Z" id="Path" fill="#FDB953" fill-rule="nonzero"></path>
            </g>
            <text id="marketplace" font-family="Roboto-Medium, Roboto" font-size="24" font-weight="400" fill="#142A89">
                <tspan x="37" y="28">marketplace   </tspan>
            </text>
        </g>
    </g>
</svg>