<svg width="181" height="51" viewBox="0 0 181 51" fill="none" xmlns="http://www.w3.org/2000/svg">
<rect width="181" height="51" rx="10" fill="url(#paint0_linear)"/>
<path d="M32.3807 17.4545H29.4901L34.6108 32H37.8636L42.9915 17.4545H40.0938L36.3153 28.9034H36.1662L32.3807 17.4545ZM44.7937 32H47.3647V21.0909H44.7937V32ZM46.0863 19.5426C46.9031 19.5426 47.5707 18.9176 47.5707 18.1506C47.5707 17.3764 46.9031 16.7514 46.0863 16.7514C45.2624 16.7514 44.5948 17.3764 44.5948 18.1506C44.5948 18.9176 45.2624 19.5426 46.0863 19.5426ZM54.8381 32.2131C57.3807 32.2131 59.1278 30.9702 59.5824 29.0739L57.1818 28.804C56.8338 29.7273 55.9815 30.2102 54.8736 30.2102C53.2116 30.2102 52.1108 29.1165 52.0895 27.2486H59.6889V26.4602C59.6889 22.6321 57.3878 20.9489 54.7031 20.9489C51.5781 20.9489 49.5398 23.2429 49.5398 26.6094C49.5398 30.0327 51.5497 32.2131 54.8381 32.2131ZM52.0966 25.5156C52.1747 24.1236 53.2045 22.9517 54.7386 22.9517C56.2159 22.9517 57.2102 24.0312 57.2244 25.5156H52.0966ZM64.0568 32H66.7415L68.7869 24.6278H68.9361L70.9815 32H73.6591L76.7486 21.0909H74.1207L72.2315 28.7188H72.125L70.1648 21.0909H67.5724L65.6122 28.7614H65.5128L63.5952 21.0909H60.9744L64.0568 32ZM83.6183 32H86.2532V27.0852H89.0373C92.3967 27.0852 94.2006 25.0682 94.2006 22.2699C94.2006 19.4929 92.418 17.4545 89.0728 17.4545H83.6183V32ZM86.2532 24.919V19.6562H88.668C90.6424 19.6562 91.516 20.7216 91.516 22.2699C91.516 23.8182 90.6424 24.919 88.6822 24.919H86.2532ZM96.3757 32H98.9467V25.5866C98.9467 24.2017 99.9908 23.2216 101.404 23.2216C101.837 23.2216 102.377 23.2997 102.597 23.3707V21.0057C102.363 20.9631 101.958 20.9347 101.674 20.9347C100.424 20.9347 99.38 21.6449 98.9822 22.9091H98.8686V21.0909H96.3757V32ZM108.615 32.2131C111.811 32.2131 113.842 29.9616 113.842 26.5881C113.842 23.2074 111.811 20.9489 108.615 20.9489C105.419 20.9489 103.387 23.2074 103.387 26.5881C103.387 29.9616 105.419 32.2131 108.615 32.2131ZM108.629 30.1534C106.86 30.1534 105.994 28.5767 105.994 26.581C105.994 24.5852 106.86 22.9872 108.629 22.9872C110.369 22.9872 111.235 24.5852 111.235 26.581C111.235 28.5767 110.369 30.1534 108.629 30.1534ZM116.024 21.0909V32.5895C116.024 33.5057 115.634 33.9957 114.646 33.9957C114.518 33.9957 114.419 33.9886 114.277 33.9815V36.0767C114.462 36.0909 114.618 36.0909 114.803 36.0909C117.21 36.0909 118.595 34.983 118.595 32.625V21.0909H116.024ZM117.303 19.5426C118.119 19.5426 118.787 18.9176 118.787 18.1506C118.787 17.3764 118.119 16.7514 117.303 16.7514C116.479 16.7514 115.811 17.3764 115.811 18.1506C115.811 18.9176 116.479 19.5426 117.303 19.5426ZM126.069 32.2131C128.611 32.2131 130.358 30.9702 130.813 29.0739L128.412 28.804C128.064 29.7273 127.212 30.2102 126.104 30.2102C124.442 30.2102 123.341 29.1165 123.32 27.2486H130.919V26.4602C130.919 22.6321 128.618 20.9489 125.934 20.9489C122.809 20.9489 120.77 23.2429 120.77 26.6094C120.77 30.0327 122.78 32.2131 126.069 32.2131ZM123.327 25.5156C123.405 24.1236 124.435 22.9517 125.969 22.9517C127.446 22.9517 128.441 24.0312 128.455 25.5156H123.327ZM137.853 32.2131C140.594 32.2131 142.342 30.5866 142.526 28.2713H140.069C139.849 29.4432 139.004 30.1179 137.874 30.1179C136.269 30.1179 135.232 28.7756 135.232 26.5455C135.232 24.3438 136.29 23.0227 137.874 23.0227C139.11 23.0227 139.87 23.8182 140.069 24.8693H142.526C142.349 22.5043 140.502 20.9489 137.839 20.9489C134.643 20.9489 132.626 23.2571 132.626 26.5881C132.626 29.8906 134.593 32.2131 137.853 32.2131ZM150.085 21.0909H147.933V18.4773H145.362V21.0909H143.814V23.0795H145.362V29.1449C145.348 31.1974 146.839 32.206 148.771 32.1491C149.502 32.1278 150.007 31.9858 150.284 31.8935L149.85 29.8835C149.708 29.919 149.417 29.983 149.098 29.983C148.451 29.983 147.933 29.7557 147.933 28.7188V23.0795H150.085V21.0909Z" fill="white"/>
<defs>
<linearGradient id="paint0_linear" x1="181" y1="25.5" x2="3.84549e-07" y2="25.5" gradientUnits="userSpaceOnUse">
<stop stop-color="#428AE8"/>
<stop offset="1" stop-color="#1B4D8D"/>
</linearGradient>
</defs>
</svg>
