<svg width="579" height="322" viewBox="0 0 579 322" fill="none" xmlns="http://www.w3.org/2000/svg">
<g filter="url(#filter0_f_238_407)">
<rect x="12" y="308.966" width="555" height="0.758197" rx="0.379098" fill="black"/>
</g>
<g filter="url(#filter1_f_238_407)">
<rect x="12.3789" y="309.345" width="554.242" height="0.379098" rx="0.189549" fill="black" fill-opacity="0.6"/>
</g>
<g filter="url(#filter2_ii_238_407)">
<rect x="12" y="299" width="555" height="9.85656" rx="1" fill="url(#paint0_linear_238_407)"/>
<rect x="12" y="299" width="555" height="9.85656" rx="1" fill="url(#paint1_linear_238_407)" fill-opacity="0.2"/>
</g>
<path fill-rule="evenodd" clip-rule="evenodd" d="M503.313 7.20285L76.0681 7.20287V295.507C76.0681 297.496 74.4557 299.109 72.4667 299.109C70.4777 299.109 68.8652 297.496 68.8652 295.507V3.60168C68.8652 3.60138 68.8652 3.60151 68.8652 3.60159L68.8652 3.60144C68.8652 1.61243 70.4776 1.90772e-05 72.4667 1.89903e-05L506.913 0C508.902 -8.69331e-08 510.515 1.61241 510.515 3.60142C510.515 3.79422 510.5 3.98348 510.471 4.16807C510.5 4.354 510.516 4.54467 510.516 4.73894V295.886C510.516 297.876 508.903 299.488 506.914 299.488C504.925 299.488 503.313 297.876 503.313 295.887V7.20285Z" fill="#343434"/>
<rect x="69" y="299.203" width="7.20285" height="441.65" rx="3.60142" transform="rotate(-90 69 299.203)" fill="#343434"/>
<defs>
<filter id="filter0_f_238_407" x="0" y="296.966" width="579" height="24.7583" filterUnits="userSpaceOnUse" color-interpolation-filters="sRGB">
<feFlood flood-opacity="0" result="BackgroundImageFix"/>
<feBlend mode="normal" in="SourceGraphic" in2="BackgroundImageFix" result="shape"/>
<feGaussianBlur stdDeviation="6" result="effect1_foregroundBlur_238_407"/>
</filter>
<filter id="filter1_f_238_407" x="9.37891" y="306.345" width="560.242" height="6.37891" filterUnits="userSpaceOnUse" color-interpolation-filters="sRGB">
<feFlood flood-opacity="0" result="BackgroundImageFix"/>
<feBlend mode="normal" in="SourceGraphic" in2="BackgroundImageFix" result="shape"/>
<feGaussianBlur stdDeviation="1.5" result="effect1_foregroundBlur_238_407"/>
</filter>
<filter id="filter2_ii_238_407" x="12" y="298" width="555" height="10.8564" filterUnits="userSpaceOnUse" color-interpolation-filters="sRGB">
<feFlood flood-opacity="0" result="BackgroundImageFix"/>
<feBlend mode="normal" in="SourceGraphic" in2="BackgroundImageFix" result="shape"/>
<feColorMatrix in="SourceAlpha" type="matrix" values="0 0 0 0 0 0 0 0 0 0 0 0 0 0 0 0 0 0 127 0" result="hardAlpha"/>
<feOffset dy="-2"/>
<feGaussianBlur stdDeviation="0.5"/>
<feComposite in2="hardAlpha" operator="arithmetic" k2="-1" k3="1"/>
<feColorMatrix type="matrix" values="0 0 0 0 1 0 0 0 0 1 0 0 0 0 1 0 0 0 0.7 0"/>
<feBlend mode="normal" in2="shape" result="effect1_innerShadow_238_407"/>
<feColorMatrix in="SourceAlpha" type="matrix" values="0 0 0 0 0 0 0 0 0 0 0 0 0 0 0 0 0 0 127 0" result="hardAlpha"/>
<feOffset dy="-1"/>
<feGaussianBlur stdDeviation="0.5"/>
<feComposite in2="hardAlpha" operator="arithmetic" k2="-1" k3="1"/>
<feColorMatrix type="matrix" values="0 0 0 0 0 0 0 0 0 0 0 0 0 0 0 0 0 0 0.3 0"/>
<feBlend mode="normal" in2="effect1_innerShadow_238_407" result="effect2_innerShadow_238_407"/>
</filter>
<linearGradient id="paint0_linear_238_407" x1="12" y1="303.929" x2="567" y2="303.929" gradientUnits="userSpaceOnUse">
<stop stop-color="#C6C5C5"/>
<stop offset="0.00868664" stop-color="#FEFEFE"/>
<stop offset="0.0311419" stop-color="#E3E3E3"/>
<stop offset="0.962505" stop-color="#E7E6E6"/>
<stop offset="0.992057" stop-color="white"/>
<stop offset="1" stop-color="#C6C5C5"/>
</linearGradient>
<linearGradient id="paint1_linear_238_407" x1="289.5" y1="299" x2="289.5" y2="308.857" gradientUnits="userSpaceOnUse">
<stop stop-color="#EFEFEF"/>
<stop offset="1" stop-color="#DBDBDB"/>
</linearGradient>
</defs>
</svg>
