<svg width="219" height="32" viewBox="0 0 219 32" fill="none" xmlns="http://www.w3.org/2000/svg">
<path d="M2.64205 12H0.392045L4.48864 0.363636H7.09091L11.1932 12H8.94318L5.83523 2.75H5.74432L2.64205 12ZM2.71591 7.4375H8.85227V9.13068H2.71591V7.4375ZM22.9392 4.28977H20.8142C20.7536 3.94129 20.6419 3.63258 20.479 3.36364C20.3161 3.09091 20.1134 2.85985 19.871 2.67045C19.6286 2.48106 19.3521 2.33901 19.0415 2.24432C18.7347 2.14583 18.4032 2.09659 18.0472 2.09659C17.4146 2.09659 16.854 2.25568 16.3653 2.57386C15.8767 2.88826 15.4941 3.35038 15.2176 3.96023C14.9411 4.56629 14.8028 5.30682 14.8028 6.18182C14.8028 7.07197 14.9411 7.82197 15.2176 8.43182C15.4979 9.03788 15.8805 9.49621 16.3653 9.80682C16.854 10.1136 17.4127 10.267 18.0415 10.267C18.39 10.267 18.7157 10.2216 19.0188 10.1307C19.3256 10.036 19.6002 9.89773 19.8426 9.71591C20.0888 9.53409 20.2953 9.31061 20.4619 9.04545C20.6324 8.7803 20.7498 8.47727 20.8142 8.13636L22.9392 8.14773C22.8597 8.70076 22.6873 9.2197 22.4222 9.70455C22.1608 10.1894 21.818 10.6174 21.3938 10.9886C20.9695 11.3561 20.4733 11.6439 19.9051 11.8523C19.3369 12.0568 18.7063 12.1591 18.0131 12.1591C16.9903 12.1591 16.0775 11.9223 15.2744 11.4489C14.4714 10.9754 13.8388 10.2917 13.3767 9.39773C12.9146 8.50379 12.6835 7.43182 12.6835 6.18182C12.6835 4.92803 12.9165 3.85606 13.3824 2.96591C13.8483 2.07197 14.4828 1.38826 15.2858 0.914772C16.0888 0.441287 16.9979 0.204545 18.0131 0.204545C18.6608 0.204545 19.2631 0.295454 19.8199 0.477272C20.3767 0.659091 20.8729 0.926136 21.3085 1.27841C21.7441 1.62689 22.1021 2.05492 22.3824 2.5625C22.6665 3.06629 22.8521 3.64205 22.9392 4.28977ZM36.0673 6.18182C36.0673 7.43561 35.8325 8.50947 35.3628 9.40341C34.8969 10.2936 34.2605 10.9754 33.4537 11.4489C32.6507 11.9223 31.7397 12.1591 30.7207 12.1591C29.7018 12.1591 28.7889 11.9223 27.9821 11.4489C27.1791 10.9716 26.5427 10.2879 26.073 9.39773C25.6071 8.50379 25.3741 7.43182 25.3741 6.18182C25.3741 4.92803 25.6071 3.85606 26.073 2.96591C26.5427 2.07197 27.1791 1.38826 27.9821 0.914772C28.7889 0.441287 29.7018 0.204545 30.7207 0.204545C31.7397 0.204545 32.6507 0.441287 33.4537 0.914772C34.2605 1.38826 34.8969 2.07197 35.3628 2.96591C35.8325 3.85606 36.0673 4.92803 36.0673 6.18182ZM33.948 6.18182C33.948 5.29924 33.8098 4.55492 33.5332 3.94886C33.2605 3.33902 32.8817 2.87879 32.3969 2.56818C31.912 2.25379 31.3533 2.09659 30.7207 2.09659C30.0882 2.09659 29.5295 2.25379 29.0446 2.56818C28.5598 2.87879 28.1791 3.33902 27.9026 3.94886C27.6298 4.55492 27.4935 5.29924 27.4935 6.18182C27.4935 7.06439 27.6298 7.81061 27.9026 8.42045C28.1791 9.02652 28.5598 9.48674 29.0446 9.80114C29.5295 10.1117 30.0882 10.267 30.7207 10.267C31.3533 10.267 31.912 10.1117 32.3969 9.80114C32.8817 9.48674 33.2605 9.02652 33.5332 8.42045C33.8098 7.81061 33.948 7.06439 33.948 6.18182ZM43.629 0.363636H46.2085L49.6631 8.79545H49.7994L53.254 0.363636H55.8335V12H53.8108V4.00568H53.7028L50.4869 11.9659H48.9756L45.7597 3.98864H45.6517V12H43.629V0.363636ZM61.3494 12.1761C60.7964 12.1761 60.2983 12.0777 59.8551 11.8807C59.4157 11.6799 59.0672 11.3845 58.8097 10.9943C58.5559 10.6042 58.429 10.1231 58.429 9.55114C58.429 9.05871 58.5199 8.65152 58.7017 8.32955C58.8835 8.00758 59.1316 7.75 59.446 7.55682C59.7604 7.36364 60.1146 7.2178 60.5085 7.11932C60.9063 7.01705 61.3172 6.94318 61.7415 6.89773C62.2528 6.8447 62.6676 6.79735 62.9858 6.75568C63.304 6.71023 63.535 6.64205 63.679 6.55114C63.8267 6.45644 63.9006 6.31061 63.9006 6.11364V6.07955C63.9006 5.65152 63.7737 5.32008 63.5199 5.08523C63.2661 4.85038 62.9006 4.73295 62.4233 4.73295C61.9195 4.73295 61.5199 4.8428 61.2244 5.0625C60.9328 5.2822 60.7358 5.54167 60.6335 5.84091L58.7131 5.56818C58.8646 5.03788 59.1146 4.5947 59.4631 4.23864C59.8116 3.87879 60.2377 3.60985 60.7415 3.43182C61.2453 3.25 61.8021 3.15909 62.4119 3.15909C62.8324 3.15909 63.2509 3.20833 63.6676 3.30682C64.0843 3.4053 64.465 3.56818 64.8097 3.79545C65.1544 4.01894 65.4309 4.32386 65.6392 4.71023C65.8513 5.09659 65.9574 5.57955 65.9574 6.15909V12H63.9801V10.8011H63.9119C63.7869 11.0436 63.6108 11.2708 63.3835 11.483C63.16 11.6913 62.8778 11.8598 62.5369 11.9886C62.1998 12.1136 61.804 12.1761 61.3494 12.1761ZM61.8835 10.6648C62.2964 10.6648 62.6544 10.5833 62.9574 10.4205C63.2604 10.2538 63.4934 10.0341 63.6562 9.76136C63.8229 9.48864 63.9062 9.19129 63.9062 8.86932V7.84091C63.8419 7.89394 63.732 7.94318 63.5767 7.98864C63.4252 8.03409 63.2547 8.07386 63.0653 8.10795C62.8759 8.14205 62.6884 8.17235 62.5028 8.19886C62.3172 8.22538 62.1563 8.24811 62.0199 8.26705C61.7131 8.30871 61.4384 8.37689 61.196 8.47159C60.9536 8.56629 60.7623 8.69886 60.6222 8.86932C60.482 9.03598 60.4119 9.25189 60.4119 9.51705C60.4119 9.89583 60.5502 10.1818 60.8267 10.375C61.1032 10.5682 61.4555 10.6648 61.8835 10.6648ZM70.8824 6.88636V12H68.8256V3.27273H70.7915V4.75568H70.8938C71.0945 4.26705 71.4146 3.87879 71.854 3.59091C72.2972 3.30303 72.8445 3.15909 73.496 3.15909C74.0983 3.15909 74.6229 3.28788 75.0699 3.54545C75.5206 3.80303 75.8691 4.17614 76.1153 4.66477C76.3653 5.15341 76.4885 5.74621 76.4847 6.44318V12H74.4278V6.76136C74.4278 6.17803 74.2763 5.72159 73.9733 5.39205C73.6741 5.0625 73.2593 4.89773 72.729 4.89773C72.3691 4.89773 72.0491 4.97727 71.7688 5.13636C71.4922 5.29167 71.2744 5.51705 71.1153 5.8125C70.96 6.10795 70.8824 6.46591 70.8824 6.88636ZM81.8869 12.1761C81.3339 12.1761 80.8358 12.0777 80.3926 11.8807C79.9532 11.6799 79.6047 11.3845 79.3472 10.9943C79.0934 10.6042 78.9665 10.1231 78.9665 9.55114C78.9665 9.05871 79.0574 8.65152 79.2392 8.32955C79.421 8.00758 79.6691 7.75 79.9835 7.55682C80.2979 7.36364 80.6521 7.2178 81.046 7.11932C81.4437 7.01705 81.8547 6.94318 82.279 6.89773C82.7903 6.8447 83.2051 6.79735 83.5233 6.75568C83.8415 6.71023 84.0725 6.64205 84.2165 6.55114C84.3642 6.45644 84.4381 6.31061 84.4381 6.11364V6.07955C84.4381 5.65152 84.3112 5.32008 84.0574 5.08523C83.8036 4.85038 83.4381 4.73295 82.9608 4.73295C82.457 4.73295 82.0574 4.8428 81.7619 5.0625C81.4703 5.2822 81.2733 5.54167 81.171 5.84091L79.2506 5.56818C79.4021 5.03788 79.6521 4.5947 80.0006 4.23864C80.3491 3.87879 80.7752 3.60985 81.279 3.43182C81.7828 3.25 82.3396 3.15909 82.9494 3.15909C83.3699 3.15909 83.7884 3.20833 84.2051 3.30682C84.6218 3.4053 85.0025 3.56818 85.3472 3.79545C85.6919 4.01894 85.9684 4.32386 86.1767 4.71023C86.3888 5.09659 86.4949 5.57955 86.4949 6.15909V12H84.5176V10.8011H84.4494C84.3244 11.0436 84.1483 11.2708 83.921 11.483C83.6975 11.6913 83.4153 11.8598 83.0744 11.9886C82.7373 12.1136 82.3415 12.1761 81.8869 12.1761ZM82.421 10.6648C82.8339 10.6648 83.1919 10.5833 83.4949 10.4205C83.7979 10.2538 84.0309 10.0341 84.1937 9.76136C84.3604 9.48864 84.4437 9.19129 84.4437 8.86932V7.84091C84.3794 7.89394 84.2695 7.94318 84.1142 7.98864C83.9627 8.03409 83.7922 8.07386 83.6028 8.10795C83.4134 8.14205 83.2259 8.17235 83.0403 8.19886C82.8547 8.22538 82.6937 8.24811 82.5574 8.26705C82.2506 8.30871 81.9759 8.37689 81.7335 8.47159C81.4911 8.56629 81.2998 8.69886 81.1597 8.86932C81.0195 9.03598 80.9494 9.25189 80.9494 9.51705C80.9494 9.89583 81.0877 10.1818 81.3642 10.375C81.6407 10.5682 81.993 10.6648 82.421 10.6648ZM93.1585 15.4545C92.4199 15.4545 91.7854 15.3542 91.2551 15.1534C90.7248 14.9564 90.2987 14.6913 89.9767 14.358C89.6547 14.0246 89.4313 13.6553 89.3063 13.25L91.1585 12.8011C91.2419 12.9716 91.3631 13.1402 91.5222 13.3068C91.6813 13.4773 91.8953 13.6174 92.1642 13.7273C92.4369 13.8409 92.7797 13.8977 93.1926 13.8977C93.7759 13.8977 94.2589 13.7557 94.6415 13.4716C95.0241 13.1913 95.2153 12.7292 95.2153 12.0852V10.4318H95.1131C95.007 10.6439 94.8517 10.8617 94.6472 11.0852C94.4464 11.3087 94.1794 11.4962 93.846 11.6477C93.5165 11.7992 93.1017 11.875 92.6017 11.875C91.9313 11.875 91.3233 11.7178 90.7778 11.4034C90.2362 11.0852 89.8044 10.6117 89.4824 9.98295C89.1642 9.35038 89.0051 8.55871 89.0051 7.60795C89.0051 6.64962 89.1642 5.84091 89.4824 5.18182C89.8044 4.51894 90.2381 4.01705 90.7835 3.67614C91.329 3.33144 91.9369 3.15909 92.6074 3.15909C93.1188 3.15909 93.5392 3.24621 93.8688 3.42045C94.2021 3.59091 94.4672 3.79735 94.6642 4.03977C94.8612 4.27841 95.0108 4.50379 95.1131 4.71591H95.2267V3.27273H97.2551V12.142C97.2551 12.8883 97.0771 13.5057 96.721 13.9943C96.365 14.483 95.8782 14.8485 95.2608 15.0909C94.6434 15.3333 93.9426 15.4545 93.1585 15.4545ZM93.1756 10.2614C93.6112 10.2614 93.9824 10.1553 94.2892 9.94318C94.596 9.73106 94.829 9.42614 94.9881 9.02841C95.1472 8.63068 95.2267 8.15341 95.2267 7.59659C95.2267 7.04735 95.1472 6.56629 94.9881 6.15341C94.8328 5.74053 94.6017 5.42045 94.2949 5.19318C93.9919 4.96212 93.6188 4.84659 93.1756 4.84659C92.7172 4.84659 92.3347 4.96591 92.0278 5.20455C91.721 5.44318 91.49 5.77083 91.3347 6.1875C91.1794 6.60038 91.1017 7.07008 91.1017 7.59659C91.1017 8.13068 91.1794 8.59848 91.3347 9C91.4938 9.39773 91.7267 9.70833 92.0335 9.93182C92.3441 10.1515 92.7248 10.2614 93.1756 10.2614ZM104.027 12.1705C103.152 12.1705 102.396 11.9886 101.76 11.625C101.127 11.2576 100.64 10.7386 100.299 10.0682C99.9585 9.39394 99.7881 8.60038 99.7881 7.6875C99.7881 6.78977 99.9585 6.00189 100.299 5.32386C100.644 4.64205 101.125 4.11174 101.743 3.73295C102.36 3.35038 103.085 3.15909 103.919 3.15909C104.457 3.15909 104.964 3.24621 105.441 3.42045C105.923 3.59091 106.347 3.85606 106.714 4.21591C107.085 4.57576 107.377 5.03409 107.589 5.59091C107.801 6.14394 107.907 6.80303 107.907 7.56818V8.19886H100.754V6.8125H105.936C105.932 6.41856 105.847 6.06818 105.68 5.76136C105.513 5.45076 105.28 5.20644 104.981 5.02841C104.686 4.85038 104.341 4.76136 103.947 4.76136C103.527 4.76136 103.157 4.86364 102.839 5.06818C102.521 5.26894 102.273 5.53409 102.095 5.86364C101.921 6.18939 101.832 6.54735 101.828 6.9375V8.14773C101.828 8.6553 101.921 9.09091 102.106 9.45455C102.292 9.81439 102.551 10.0909 102.885 10.2841C103.218 10.4735 103.608 10.5682 104.055 10.5682C104.354 10.5682 104.625 10.5265 104.868 10.4432C105.11 10.3561 105.32 10.2292 105.498 10.0625C105.676 9.89583 105.811 9.68939 105.902 9.44318L107.822 9.65909C107.701 10.1667 107.47 10.6098 107.129 10.9886C106.792 11.3636 106.36 11.6553 105.834 11.8636C105.307 12.0682 104.705 12.1705 104.027 12.1705ZM110.447 12V3.27273H112.413V4.75568H112.516C112.697 4.25568 112.999 3.86553 113.419 3.58523C113.839 3.30114 114.341 3.15909 114.925 3.15909C115.516 3.15909 116.014 3.30303 116.419 3.59091C116.828 3.875 117.116 4.26326 117.283 4.75568H117.374C117.567 4.27083 117.893 3.88447 118.351 3.59659C118.813 3.30492 119.36 3.15909 119.993 3.15909C120.796 3.15909 121.451 3.41288 121.959 3.92045C122.466 4.42803 122.72 5.16856 122.72 6.14205V12H120.658V6.46023C120.658 5.91856 120.514 5.52273 120.226 5.27273C119.938 5.01894 119.586 4.89205 119.169 4.89205C118.673 4.89205 118.285 5.04735 118.004 5.35795C117.728 5.66477 117.589 6.06439 117.589 6.55682V12H115.572V6.375C115.572 5.92424 115.436 5.56439 115.163 5.29545C114.894 5.02651 114.542 4.89205 114.107 4.89205C113.811 4.89205 113.542 4.9678 113.3 5.11932C113.057 5.26705 112.864 5.47727 112.72 5.75C112.576 6.01894 112.504 6.33333 112.504 6.69318V12H110.447ZM129.47 12.1705C128.595 12.1705 127.84 11.9886 127.203 11.625C126.571 11.2576 126.084 10.7386 125.743 10.0682C125.402 9.39394 125.232 8.60038 125.232 7.6875C125.232 6.78977 125.402 6.00189 125.743 5.32386C126.088 4.64205 126.569 4.11174 127.186 3.73295C127.804 3.35038 128.529 3.15909 129.363 3.15909C129.9 3.15909 130.408 3.24621 130.885 3.42045C131.366 3.59091 131.791 3.85606 132.158 4.21591C132.529 4.57576 132.821 5.03409 133.033 5.59091C133.245 6.14394 133.351 6.80303 133.351 7.56818V8.19886H126.198V6.8125H131.38C131.376 6.41856 131.291 6.06818 131.124 5.76136C130.957 5.45076 130.724 5.20644 130.425 5.02841C130.13 4.85038 129.785 4.76136 129.391 4.76136C128.97 4.76136 128.601 4.86364 128.283 5.06818C127.965 5.26894 127.717 5.53409 127.539 5.86364C127.364 6.18939 127.275 6.54735 127.272 6.9375V8.14773C127.272 8.6553 127.364 9.09091 127.55 9.45455C127.736 9.81439 127.995 10.0909 128.328 10.2841C128.662 10.4735 129.052 10.5682 129.499 10.5682C129.798 10.5682 130.069 10.5265 130.311 10.4432C130.554 10.3561 130.764 10.2292 130.942 10.0625C131.12 9.89583 131.255 9.68939 131.345 9.44318L133.266 9.65909C133.145 10.1667 132.914 10.6098 132.573 10.9886C132.236 11.3636 131.804 11.6553 131.277 11.8636C130.751 12.0682 130.148 12.1705 129.47 12.1705ZM137.948 6.88636V12H135.891V3.27273H137.857V4.75568H137.959C138.16 4.26705 138.48 3.87879 138.92 3.59091C139.363 3.30303 139.91 3.15909 140.562 3.15909C141.164 3.15909 141.689 3.28788 142.136 3.54545C142.586 3.80303 142.935 4.17614 143.181 4.66477C143.431 5.15341 143.554 5.74621 143.55 6.44318V12H141.493V6.76136C141.493 6.17803 141.342 5.72159 141.039 5.39205C140.74 5.0625 140.325 4.89773 139.795 4.89773C139.435 4.89773 139.115 4.97727 138.834 5.13636C138.558 5.29167 138.34 5.51705 138.181 5.8125C138.026 6.10795 137.948 6.46591 137.948 6.88636ZM150.799 3.27273V4.86364H145.782V3.27273H150.799ZM147.021 1.18182H149.078V9.375C149.078 9.65152 149.119 9.86364 149.203 10.0114C149.29 10.1553 149.403 10.2538 149.543 10.3068C149.684 10.3598 149.839 10.3864 150.009 10.3864C150.138 10.3864 150.256 10.3769 150.362 10.358C150.471 10.339 150.555 10.322 150.612 10.3068L150.958 11.9148C150.848 11.9527 150.691 11.9943 150.487 12.0398C150.286 12.0852 150.04 12.1117 149.748 12.1193C149.233 12.1345 148.769 12.0568 148.356 11.8864C147.943 11.7121 147.615 11.4432 147.373 11.0795C147.134 10.7159 147.017 10.2614 147.021 9.71591V1.18182ZM164.503 3.5625C164.45 3.06629 164.226 2.67992 163.832 2.40341C163.442 2.12689 162.935 1.98864 162.31 1.98864C161.87 1.98864 161.493 2.05492 161.179 2.1875C160.865 2.32008 160.624 2.5 160.457 2.72727C160.291 2.95455 160.205 3.21402 160.202 3.50568C160.202 3.74811 160.257 3.95833 160.366 4.13636C160.48 4.31439 160.634 4.46591 160.827 4.59091C161.02 4.71212 161.234 4.81439 161.469 4.89773C161.704 4.98106 161.94 5.05114 162.179 5.10795L163.27 5.38068C163.709 5.48295 164.132 5.62121 164.537 5.79545C164.946 5.9697 165.312 6.18939 165.634 6.45455C165.959 6.7197 166.217 7.03977 166.406 7.41477C166.596 7.78977 166.69 8.22917 166.69 8.73295C166.69 9.41477 166.516 10.0152 166.168 10.5341C165.819 11.0492 165.315 11.4527 164.656 11.7443C164.001 12.0322 163.207 12.1761 162.276 12.1761C161.37 12.1761 160.584 12.036 159.918 11.7557C159.255 11.4754 158.736 11.0663 158.361 10.5284C157.99 9.99053 157.789 9.33523 157.759 8.5625H159.832C159.863 8.9678 159.988 9.30492 160.207 9.57386C160.427 9.8428 160.713 10.0436 161.065 10.1761C161.421 10.3087 161.819 10.375 162.259 10.375C162.717 10.375 163.118 10.3068 163.463 10.1705C163.812 10.0303 164.084 9.83712 164.281 9.59091C164.478 9.34091 164.579 9.04924 164.582 8.71591C164.579 8.41288 164.49 8.16288 164.315 7.96591C164.141 7.76515 163.897 7.59848 163.582 7.46591C163.272 7.32955 162.908 7.20833 162.491 7.10227L161.168 6.76136C160.209 6.51515 159.452 6.14205 158.895 5.64205C158.342 5.13826 158.065 4.4697 158.065 3.63636C158.065 2.95076 158.251 2.35038 158.622 1.83523C158.997 1.32008 159.507 0.920454 160.151 0.636363C160.795 0.348484 161.524 0.204545 162.338 0.204545C163.164 0.204545 163.887 0.348484 164.509 0.636363C165.134 0.920454 165.624 1.31629 165.98 1.82386C166.336 2.32765 166.52 2.9072 166.531 3.5625H164.503ZM170.557 15.2727C170.277 15.2727 170.017 15.25 169.779 15.2045C169.544 15.1629 169.356 15.1136 169.216 15.0568L169.693 13.4545C169.993 13.5417 170.26 13.5833 170.495 13.5795C170.729 13.5758 170.936 13.5019 171.114 13.358C171.296 13.2178 171.449 12.983 171.574 12.6534L171.75 12.1818L168.586 3.27273H170.767L172.779 9.86364H172.87L174.887 3.27273H177.074L173.58 13.0568C173.417 13.5189 173.201 13.9148 172.932 14.2443C172.663 14.5777 172.334 14.8314 171.943 15.0057C171.557 15.1837 171.095 15.2727 170.557 15.2727ZM186.195 5.57955L184.32 5.78409C184.267 5.5947 184.174 5.41667 184.042 5.25C183.913 5.08333 183.739 4.94886 183.519 4.84659C183.299 4.74432 183.03 4.69318 182.712 4.69318C182.284 4.69318 181.924 4.78598 181.633 4.97159C181.345 5.1572 181.203 5.39773 181.207 5.69318C181.203 5.94697 181.296 6.15341 181.485 6.3125C181.678 6.47159 181.996 6.60227 182.439 6.70455L183.928 7.02273C184.754 7.20076 185.368 7.48295 185.769 7.86932C186.174 8.25568 186.379 8.76136 186.383 9.38636C186.379 9.93561 186.218 10.4205 185.9 10.8409C185.585 11.2576 185.148 11.5833 184.587 11.8182C184.027 12.053 183.383 12.1705 182.655 12.1705C181.587 12.1705 180.727 11.947 180.076 11.5C179.424 11.0492 179.036 10.4223 178.911 9.61932L180.917 9.42614C181.008 9.82008 181.201 10.1174 181.496 10.3182C181.792 10.5189 182.176 10.6193 182.65 10.6193C183.138 10.6193 183.53 10.5189 183.826 10.3182C184.125 10.1174 184.275 9.86932 184.275 9.57386C184.275 9.32386 184.178 9.11742 183.985 8.95455C183.796 8.79167 183.5 8.66667 183.099 8.57955L181.61 8.26705C180.773 8.0928 180.154 7.79924 179.752 7.38636C179.35 6.9697 179.152 6.44318 179.155 5.80682C179.152 5.26894 179.297 4.80303 179.593 4.40909C179.892 4.01136 180.307 3.70455 180.837 3.48864C181.371 3.26894 181.987 3.15909 182.684 3.15909C183.707 3.15909 184.511 3.37689 185.099 3.8125C185.689 4.24811 186.055 4.83712 186.195 5.57955ZM193.237 3.27273V4.86364H188.22V3.27273H193.237ZM189.458 1.18182H191.515V9.375C191.515 9.65152 191.557 9.86364 191.64 10.0114C191.727 10.1553 191.841 10.2538 191.981 10.3068C192.121 10.3598 192.276 10.3864 192.447 10.3864C192.576 10.3864 192.693 10.3769 192.799 10.358C192.909 10.339 192.992 10.322 193.049 10.3068L193.396 11.9148C193.286 11.9527 193.129 11.9943 192.924 12.0398C192.723 12.0852 192.477 12.1117 192.186 12.1193C191.67 12.1345 191.206 12.0568 190.793 11.8864C190.381 11.7121 190.053 11.4432 189.811 11.0795C189.572 10.7159 189.454 10.2614 189.458 9.71591V1.18182ZM199.527 12.1705C198.652 12.1705 197.896 11.9886 197.26 11.625C196.627 11.2576 196.14 10.7386 195.799 10.0682C195.459 9.39394 195.288 8.60038 195.288 7.6875C195.288 6.78977 195.459 6.00189 195.799 5.32386C196.144 4.64205 196.625 4.11174 197.243 3.73295C197.86 3.35038 198.585 3.15909 199.419 3.15909C199.957 3.15909 200.464 3.24621 200.941 3.42045C201.423 3.59091 201.847 3.85606 202.214 4.21591C202.585 4.57576 202.877 5.03409 203.089 5.59091C203.301 6.14394 203.407 6.80303 203.407 7.56818V8.19886H196.254V6.8125H201.436C201.432 6.41856 201.347 6.06818 201.18 5.76136C201.013 5.45076 200.78 5.20644 200.481 5.02841C200.186 4.85038 199.841 4.76136 199.447 4.76136C199.027 4.76136 198.657 4.86364 198.339 5.06818C198.021 5.26894 197.773 5.53409 197.595 5.86364C197.421 6.18939 197.332 6.54735 197.328 6.9375V8.14773C197.328 8.6553 197.421 9.09091 197.606 9.45455C197.792 9.81439 198.051 10.0909 198.385 10.2841C198.718 10.4735 199.108 10.5682 199.555 10.5682C199.854 10.5682 200.125 10.5265 200.368 10.4432C200.61 10.3561 200.82 10.2292 200.998 10.0625C201.176 9.89583 201.311 9.68939 201.402 9.44318L203.322 9.65909C203.201 10.1667 202.97 10.6098 202.629 10.9886C202.292 11.3636 201.86 11.6553 201.334 11.8636C200.807 12.0682 200.205 12.1705 199.527 12.1705ZM205.947 12V3.27273H207.913V4.75568H208.016C208.197 4.25568 208.499 3.86553 208.919 3.58523C209.339 3.30114 209.841 3.15909 210.425 3.15909C211.016 3.15909 211.514 3.30303 211.919 3.59091C212.328 3.875 212.616 4.26326 212.783 4.75568H212.874C213.067 4.27083 213.393 3.88447 213.851 3.59659C214.313 3.30492 214.86 3.15909 215.493 3.15909C216.296 3.15909 216.951 3.41288 217.459 3.92045C217.966 4.42803 218.22 5.16856 218.22 6.14205V12H216.158V6.46023C216.158 5.91856 216.014 5.52273 215.726 5.27273C215.438 5.01894 215.086 4.89205 214.669 4.89205C214.173 4.89205 213.785 5.04735 213.504 5.35795C213.228 5.66477 213.089 6.06439 213.089 6.55682V12H211.072V6.375C211.072 5.92424 210.936 5.56439 210.663 5.29545C210.394 5.02651 210.042 4.89205 209.607 4.89205C209.311 4.89205 209.042 4.9678 208.8 5.11932C208.557 5.26705 208.364 5.47727 208.22 5.75C208.076 6.01894 208.004 6.33333 208.004 6.69318V12H205.947ZM0.880682 21.7273H1.93182L4.40341 27.7642H4.48864L6.96023 21.7273H8.01136V29H7.1875V23.4744H7.11648L4.84375 29H4.0483L1.77557 23.4744H1.70455V29H0.880682V21.7273ZM12.7505 29.1136C12.2249 29.1136 11.7715 28.9976 11.3904 28.7656C11.0116 28.5312 10.7192 28.2045 10.5132 27.7855C10.3096 27.3641 10.2078 26.8741 10.2078 26.3153C10.2078 25.7566 10.3096 25.2642 10.5132 24.8381C10.7192 24.4096 11.0057 24.0758 11.3726 23.8366C11.7419 23.5952 12.1728 23.4744 12.6652 23.4744C12.9493 23.4744 13.2299 23.5218 13.5069 23.6165C13.7838 23.7112 14.036 23.8651 14.2632 24.0781C14.4905 24.2888 14.6716 24.5682 14.8066 24.9162C14.9415 25.2642 15.009 25.6927 15.009 26.2017V26.5568H10.8044V25.8324H14.1567C14.1567 25.5246 14.0952 25.25 13.9721 25.0085C13.8513 24.767 13.6785 24.5765 13.4536 24.4368C13.231 24.2971 12.9683 24.2273 12.6652 24.2273C12.3314 24.2273 12.0426 24.3101 11.7988 24.4759C11.5573 24.6392 11.3714 24.8523 11.2412 25.1151C11.111 25.3778 11.0459 25.6596 11.0459 25.9602V26.4432C11.0459 26.8551 11.1169 27.2043 11.259 27.4908C11.4034 27.7749 11.6034 27.9915 11.8591 28.1406C12.1148 28.2874 12.4119 28.3608 12.7505 28.3608C12.9706 28.3608 13.1695 28.33 13.3471 28.2685C13.527 28.2045 13.682 28.1098 13.8123 27.9844C13.9425 27.8565 14.0431 27.6979 14.1141 27.5085L14.9238 27.7358C14.8385 28.0104 14.6953 28.2519 14.4941 28.4602C14.2928 28.6662 14.0443 28.8272 13.7483 28.9432C13.4524 29.0568 13.1198 29.1136 12.7505 29.1136ZM19.1435 29.1136C18.689 29.1136 18.2877 28.9988 17.9397 28.7692C17.5917 28.5372 17.3194 28.2105 17.1229 27.7891C16.9264 27.3653 16.8282 26.8646 16.8282 26.2869C16.8282 25.714 16.9264 25.2169 17.1229 24.7955C17.3194 24.3741 17.5928 24.0485 17.9432 23.8189C18.2936 23.5893 18.6984 23.4744 19.1577 23.4744C19.5128 23.4744 19.7934 23.5336 19.9993 23.652C20.2077 23.768 20.3663 23.9006 20.4752 24.0497C20.5864 24.1965 20.6729 24.3172 20.7344 24.4119H20.8054V21.7273H21.6435V29H20.8338V28.1619H20.7344C20.6729 28.2614 20.5853 28.3868 20.4716 28.5384C20.358 28.6875 20.1958 28.8213 19.9851 28.9396C19.7744 29.0556 19.4939 29.1136 19.1435 29.1136ZM19.2571 28.3608C19.5933 28.3608 19.8774 28.2732 20.1094 28.098C20.3414 27.9205 20.5178 27.6754 20.6385 27.3629C20.7593 27.0481 20.8196 26.6847 20.8196 26.2727C20.8196 25.8655 20.7605 25.5092 20.6421 25.2038C20.5237 24.8961 20.3485 24.657 20.1165 24.4865C19.8845 24.3137 19.598 24.2273 19.2571 24.2273C18.902 24.2273 18.6061 24.3184 18.3694 24.5007C18.135 24.6806 17.9586 24.9257 17.8402 25.2358C17.7242 25.5436 17.6662 25.8892 17.6662 26.2727C17.6662 26.661 17.7254 27.0137 17.8438 27.331C17.9645 27.6458 18.1421 27.8968 18.3765 28.0838C18.6132 28.2685 18.9068 28.3608 19.2571 28.3608ZM24.0948 29V23.5455H24.9328V29H24.0948ZM24.5209 22.6364C24.3576 22.6364 24.2167 22.5807 24.0983 22.4695C23.9823 22.3582 23.9243 22.2244 23.9243 22.0682C23.9243 21.9119 23.9823 21.7782 24.0983 21.6669C24.2167 21.5556 24.3576 21.5 24.5209 21.5C24.6843 21.5 24.8239 21.5556 24.9399 21.6669C25.0583 21.7782 25.1175 21.9119 25.1175 22.0682C25.1175 22.2244 25.0583 22.3582 24.9399 22.4695C24.8239 22.5807 24.6843 22.6364 24.5209 22.6364ZM29.4837 29.1136C28.9724 29.1136 28.532 28.9929 28.1627 28.7514C27.7934 28.5099 27.5093 28.1773 27.3104 27.7536C27.1116 27.3298 27.0121 26.8456 27.0121 26.3011C27.0121 25.7472 27.1139 25.2583 27.3175 24.8345C27.5235 24.4084 27.81 24.0758 28.1769 23.8366C28.5462 23.5952 28.9771 23.4744 29.4695 23.4744C29.8531 23.4744 30.1987 23.5455 30.5065 23.6875C30.8142 23.8295 31.0664 24.0284 31.2629 24.2841C31.4594 24.5398 31.5813 24.8381 31.6286 25.179H30.7906C30.7266 24.9304 30.5846 24.7102 30.3644 24.5185C30.1466 24.3243 29.8531 24.2273 29.4837 24.2273C29.157 24.2273 28.8706 24.3125 28.6244 24.483C28.3805 24.651 28.1899 24.889 28.0526 25.1967C27.9177 25.5021 27.8502 25.8608 27.8502 26.2727C27.8502 26.6941 27.9165 27.0611 28.0491 27.3736C28.184 27.6861 28.3734 27.9287 28.6173 28.1016C28.8635 28.2744 29.1523 28.3608 29.4837 28.3608C29.7015 28.3608 29.8992 28.3229 30.0768 28.2472C30.2543 28.1714 30.4047 28.0625 30.5278 27.9205C30.6509 27.7784 30.7385 27.608 30.7906 27.4091H31.6286C31.5813 27.7311 31.4641 28.0211 31.2771 28.2791C31.0924 28.5348 30.8474 28.7384 30.542 28.8899C30.2389 29.0391 29.8862 29.1136 29.4837 29.1136ZM35.2589 29.1278C34.9132 29.1278 34.5996 29.0627 34.3178 28.9325C34.0361 28.8 33.8124 28.6094 33.6467 28.3608C33.4809 28.1098 33.3981 27.8068 33.3981 27.4517C33.3981 27.1392 33.4596 26.8859 33.5827 26.6918C33.7058 26.4953 33.8704 26.3414 34.0763 26.2301C34.2823 26.1188 34.5096 26.036 34.7582 25.9815C35.0091 25.9247 35.2612 25.8797 35.5146 25.8466C35.846 25.804 36.1147 25.772 36.3207 25.7507C36.529 25.727 36.6805 25.688 36.7752 25.6335C36.8723 25.5791 36.9208 25.4844 36.9208 25.3494V25.321C36.9208 24.9706 36.8249 24.6984 36.6332 24.5043C36.4438 24.3101 36.1561 24.2131 35.7702 24.2131C35.3701 24.2131 35.0565 24.3007 34.8292 24.4759C34.6019 24.651 34.4421 24.8381 34.3498 25.0369L33.5543 24.7528C33.6964 24.4214 33.8858 24.1634 34.1225 23.9787C34.3616 23.7917 34.622 23.6615 34.9038 23.5881C35.1879 23.5123 35.4672 23.4744 35.7418 23.4744C35.917 23.4744 36.1183 23.4957 36.3455 23.5384C36.5752 23.5786 36.7965 23.6626 37.0096 23.7905C37.225 23.9183 37.4038 24.1113 37.5458 24.3693C37.6879 24.6274 37.7589 24.973 37.7589 25.4062V29H36.9208V28.2614H36.8782C36.8214 28.3797 36.7267 28.5064 36.5941 28.6413C36.4615 28.7763 36.2852 28.8911 36.065 28.9858C35.8448 29.0805 35.5761 29.1278 35.2589 29.1278ZM35.3867 28.375C35.7182 28.375 35.9975 28.3099 36.2248 28.1797C36.4544 28.0495 36.6272 27.8814 36.7433 27.6754C36.8616 27.4695 36.9208 27.2528 36.9208 27.0256V26.2585C36.8853 26.3011 36.8072 26.3402 36.6864 26.3757C36.5681 26.4089 36.4308 26.4384 36.2745 26.4645C36.1206 26.4882 35.9703 26.5095 35.8235 26.5284C35.6791 26.545 35.5619 26.5592 35.4719 26.571C35.2541 26.5994 35.0505 26.6456 34.8612 26.7095C34.6741 26.7711 34.5226 26.8646 34.4066 26.9901C34.293 27.1132 34.2362 27.2812 34.2362 27.4943C34.2362 27.7855 34.3439 28.0057 34.5593 28.1548C34.7771 28.3016 35.0529 28.375 35.3867 28.375ZM40.0885 29V23.5455H40.8982V24.3693H40.955C41.0544 24.0994 41.2344 23.8804 41.4948 23.7124C41.7552 23.5443 42.0488 23.4602 42.3755 23.4602C42.437 23.4602 42.514 23.4614 42.6063 23.4638C42.6986 23.4661 42.7685 23.4697 42.8158 23.4744V24.3267C42.7874 24.3196 42.7223 24.3089 42.6205 24.2947C42.5211 24.2782 42.4157 24.2699 42.3044 24.2699C42.0393 24.2699 41.8025 24.3255 41.5942 24.4368C41.3882 24.5457 41.2249 24.6972 41.1042 24.8913C40.9858 25.0831 40.9266 25.3021 40.9266 25.5483V29H40.0885ZM46.7301 29.1136C46.2046 29.1136 45.7512 28.9976 45.3701 28.7656C44.9913 28.5312 44.6989 28.2045 44.4929 27.7855C44.2893 27.3641 44.1875 26.8741 44.1875 26.3153C44.1875 25.7566 44.2893 25.2642 44.4929 24.8381C44.6989 24.4096 44.9854 24.0758 45.3523 23.8366C45.7216 23.5952 46.1525 23.4744 46.6449 23.4744C46.929 23.4744 47.2096 23.5218 47.4865 23.6165C47.7635 23.7112 48.0157 23.8651 48.2429 24.0781C48.4702 24.2888 48.6513 24.5682 48.7863 24.9162C48.9212 25.2642 48.9887 25.6927 48.9887 26.2017V26.5568H44.7841V25.8324H48.1364C48.1364 25.5246 48.0748 25.25 47.9517 25.0085C47.831 24.767 47.6582 24.5765 47.4333 24.4368C47.2107 24.2971 46.948 24.2273 46.6449 24.2273C46.3111 24.2273 46.0223 24.3101 45.7784 24.4759C45.537 24.6392 45.3511 24.8523 45.2209 25.1151C45.0907 25.3778 45.0256 25.6596 45.0256 25.9602V26.4432C45.0256 26.8551 45.0966 27.2043 45.2387 27.4908C45.3831 27.7749 45.5831 27.9915 45.8388 28.1406C46.0945 28.2874 46.3916 28.3608 46.7301 28.3608C46.9503 28.3608 47.1492 28.33 47.3267 28.2685C47.5067 28.2045 47.6617 28.1098 47.7919 27.9844C47.9221 27.8565 48.0228 27.6979 48.0938 27.5085L48.9034 27.7358C48.8182 28.0104 48.675 28.2519 48.4738 28.4602C48.2725 28.6662 48.0239 28.8272 47.728 28.9432C47.4321 29.0568 47.0995 29.1136 46.7301 29.1136ZM58.7669 23.5455C58.7243 23.1856 58.5515 22.9062 58.2485 22.7074C57.9454 22.5085 57.5738 22.4091 57.1334 22.4091C56.8114 22.4091 56.5297 22.4612 56.2882 22.5653C56.0491 22.6695 55.8621 22.8127 55.7272 22.995C55.5946 23.1773 55.5283 23.3845 55.5283 23.6165C55.5283 23.8106 55.5745 23.9775 55.6668 24.1172C55.7615 24.2545 55.8822 24.3693 56.029 24.4616C56.1758 24.5516 56.3297 24.6262 56.4907 24.6854C56.6516 24.7422 56.7996 24.7884 56.9346 24.8239L57.6732 25.0227C57.8626 25.0724 58.0733 25.1411 58.3053 25.2287C58.5397 25.3163 58.7634 25.4358 58.9765 25.5874C59.1919 25.7365 59.3694 25.9283 59.5091 26.1626C59.6488 26.397 59.7186 26.6847 59.7186 27.0256C59.7186 27.4186 59.6157 27.7737 59.4097 28.0909C59.2061 28.4081 58.9078 28.6603 58.5148 28.8473C58.1242 29.0343 57.6495 29.1278 57.0908 29.1278C56.57 29.1278 56.119 29.0438 55.7378 28.8757C55.359 28.7076 55.0607 28.4732 54.8429 28.1726C54.6275 27.8719 54.5056 27.5227 54.4772 27.125H55.3863C55.4099 27.3996 55.5023 27.6269 55.6632 27.8068C55.8266 27.9844 56.0326 28.117 56.2811 28.2045C56.5321 28.2898 56.802 28.3324 57.0908 28.3324C57.427 28.3324 57.7288 28.2779 57.9963 28.169C58.2639 28.0578 58.4757 27.9039 58.632 27.7074C58.7882 27.5085 58.8664 27.2765 58.8664 27.0114C58.8664 26.7699 58.7989 26.5734 58.664 26.4219C58.529 26.2704 58.3515 26.1473 58.1313 26.0526C57.9111 25.9579 57.6732 25.875 57.4175 25.804L56.5226 25.5483C55.9544 25.3849 55.5046 25.1518 55.1732 24.8487C54.8418 24.5457 54.676 24.1491 54.676 23.6591C54.676 23.2519 54.7861 22.8968 55.0063 22.5938C55.2288 22.2884 55.5271 22.0516 55.9012 21.8835C56.2776 21.7131 56.6978 21.6278 57.1618 21.6278C57.6306 21.6278 58.0472 21.7119 58.4118 21.88C58.7764 22.0457 59.0652 22.273 59.2783 22.5618C59.4937 22.8506 59.6074 23.1785 59.6192 23.5455H58.7669ZM62.6911 25.7188V29H61.853V21.7273H62.6911V24.3977H62.7621C62.8899 24.116 63.0817 23.8923 63.3374 23.7266C63.5954 23.5585 63.9387 23.4744 64.3672 23.4744C64.7389 23.4744 65.0644 23.549 65.3438 23.6982C65.6231 23.8449 65.8397 24.071 65.9936 24.3764C66.1499 24.6795 66.228 25.0653 66.228 25.5341V29H65.3899V25.5909C65.3899 25.1577 65.2775 24.8227 65.0526 24.5859C64.83 24.3468 64.5211 24.2273 64.1257 24.2273C63.8511 24.2273 63.6049 24.2853 63.3871 24.4013C63.1716 24.5173 63.0012 24.6866 62.8757 24.9091C62.7526 25.1316 62.6911 25.4015 62.6911 25.7188ZM70.1663 29.1278C69.8207 29.1278 69.507 29.0627 69.2253 28.9325C68.9435 28.8 68.7198 28.6094 68.5541 28.3608C68.3884 28.1098 68.3055 27.8068 68.3055 27.4517C68.3055 27.1392 68.3671 26.8859 68.4902 26.6918C68.6133 26.4953 68.7778 26.3414 68.9838 26.2301C69.1897 26.1188 69.417 26.036 69.6656 25.9815C69.9165 25.9247 70.1687 25.8797 70.422 25.8466C70.7534 25.804 71.0221 25.772 71.2281 25.7507C71.4364 25.727 71.5879 25.688 71.6826 25.6335C71.7797 25.5791 71.8282 25.4844 71.8282 25.3494V25.321C71.8282 24.9706 71.7324 24.6984 71.5406 24.5043C71.3512 24.3101 71.0636 24.2131 70.6777 24.2131C70.2776 24.2131 69.9639 24.3007 69.7366 24.4759C69.5093 24.651 69.3495 24.8381 69.2572 25.0369L68.4618 24.7528C68.6038 24.4214 68.7932 24.1634 69.0299 23.9787C69.269 23.7917 69.5295 23.6615 69.8112 23.5881C70.0953 23.5123 70.3746 23.4744 70.6493 23.4744C70.8244 23.4744 71.0257 23.4957 71.253 23.5384C71.4826 23.5786 71.7039 23.6626 71.917 23.7905C72.1324 23.9183 72.3112 24.1113 72.4532 24.3693C72.5953 24.6274 72.6663 24.973 72.6663 25.4062V29H71.8282V28.2614H71.7856C71.7288 28.3797 71.6341 28.5064 71.5015 28.6413C71.369 28.7763 71.1926 28.8911 70.9724 28.9858C70.7522 29.0805 70.4835 29.1278 70.1663 29.1278ZM70.2941 28.375C70.6256 28.375 70.9049 28.3099 71.1322 28.1797C71.3619 28.0495 71.5347 27.8814 71.6507 27.6754C71.769 27.4695 71.8282 27.2528 71.8282 27.0256V26.2585C71.7927 26.3011 71.7146 26.3402 71.5939 26.3757C71.4755 26.4089 71.3382 26.4384 71.1819 26.4645C71.028 26.4882 70.8777 26.5095 70.7309 26.5284C70.5865 26.545 70.4693 26.5592 70.3794 26.571C70.1616 26.5994 69.958 26.6456 69.7686 26.7095C69.5815 26.7711 69.43 26.8646 69.314 26.9901C69.2004 27.1132 69.1436 27.2812 69.1436 27.4943C69.1436 27.7855 69.2513 28.0057 69.4667 28.1548C69.6845 28.3016 69.9603 28.375 70.2941 28.375ZM74.996 29V23.5455H75.8056V24.3693H75.8624C75.9619 24.0994 76.1418 23.8804 76.4022 23.7124C76.6626 23.5443 76.9562 23.4602 77.2829 23.4602C77.3444 23.4602 77.4214 23.4614 77.5137 23.4638C77.606 23.4661 77.6759 23.4697 77.7232 23.4744V24.3267C77.6948 24.3196 77.6297 24.3089 77.5279 24.2947C77.4285 24.2782 77.3231 24.2699 77.2119 24.2699C76.9467 24.2699 76.71 24.3255 76.5016 24.4368C76.2957 24.5457 76.1323 24.6972 76.0116 24.8913C75.8932 25.0831 75.834 25.3021 75.834 25.5483V29H74.996ZM81.6376 29.1136C81.112 29.1136 80.6586 28.9976 80.2775 28.7656C79.8987 28.5312 79.6063 28.2045 79.4004 27.7855C79.1968 27.3641 79.095 26.8741 79.095 26.3153C79.095 25.7566 79.1968 25.2642 79.4004 24.8381C79.6063 24.4096 79.8928 24.0758 80.2597 23.8366C80.629 23.5952 81.0599 23.4744 81.5523 23.4744C81.8364 23.4744 82.117 23.5218 82.394 23.6165C82.671 23.7112 82.9231 23.8651 83.1504 24.0781C83.3776 24.2888 83.5587 24.5682 83.6937 24.9162C83.8286 25.2642 83.8961 25.6927 83.8961 26.2017V26.5568H79.6915V25.8324H83.0438C83.0438 25.5246 82.9823 25.25 82.8592 25.0085C82.7384 24.767 82.5656 24.5765 82.3407 24.4368C82.1182 24.2971 81.8554 24.2273 81.5523 24.2273C81.2185 24.2273 80.9297 24.3101 80.6859 24.4759C80.4444 24.6392 80.2585 24.8523 80.1283 25.1151C79.9981 25.3778 79.933 25.6596 79.933 25.9602V26.4432C79.933 26.8551 80.004 27.2043 80.1461 27.4908C80.2905 27.7749 80.4906 27.9915 80.7462 28.1406C81.0019 28.2874 81.299 28.3608 81.6376 28.3608C81.8577 28.3608 82.0566 28.33 82.2342 28.2685C82.4141 28.2045 82.5692 28.1098 82.6994 27.9844C82.8296 27.8565 82.9302 27.6979 83.0012 27.5085L83.8109 27.7358C83.7256 28.0104 83.5824 28.2519 83.3812 28.4602C83.1799 28.6662 82.9314 28.8272 82.6354 28.9432C82.3395 29.0568 82.0069 29.1136 81.6376 29.1136ZM88.0306 29.1136C87.5761 29.1136 87.1748 28.9988 86.8268 28.7692C86.4788 28.5372 86.2065 28.2105 86.01 27.7891C85.8135 27.3653 85.7153 26.8646 85.7153 26.2869C85.7153 25.714 85.8135 25.2169 86.01 24.7955C86.2065 24.3741 86.4799 24.0485 86.8303 23.8189C87.1807 23.5893 87.5855 23.4744 88.0448 23.4744C88.3999 23.4744 88.6805 23.5336 88.8864 23.652C89.0948 23.768 89.2534 23.9006 89.3623 24.0497C89.4736 24.1965 89.56 24.3172 89.6215 24.4119H89.6925V21.7273H90.5306V29H89.7209V28.1619H89.6215C89.56 28.2614 89.4724 28.3868 89.3587 28.5384C89.2451 28.6875 89.0829 28.8213 88.8722 28.9396C88.6615 29.0556 88.381 29.1136 88.0306 29.1136ZM88.1442 28.3608C88.4804 28.3608 88.7645 28.2732 88.9965 28.098C89.2285 27.9205 89.4049 27.6754 89.5256 27.3629C89.6464 27.0481 89.7067 26.6847 89.7067 26.2727C89.7067 25.8655 89.6476 25.5092 89.5292 25.2038C89.4108 24.8961 89.2356 24.657 89.0036 24.4865C88.7716 24.3137 88.4852 24.2273 88.1442 24.2273C87.7891 24.2273 87.4932 24.3184 87.2565 24.5007C87.0221 24.6806 86.8457 24.9257 86.7273 25.2358C86.6113 25.5436 86.5533 25.8892 86.5533 26.2727C86.5533 26.661 86.6125 27.0137 86.7309 27.331C86.8516 27.6458 87.0292 27.8968 87.2636 28.0838C87.5003 28.2685 87.7939 28.3608 88.1442 28.3608ZM100.685 23.5455C100.643 23.1856 100.47 22.9062 100.167 22.7074C99.8638 22.5085 99.4921 22.4091 99.0518 22.4091C98.7298 22.4091 98.4481 22.4612 98.2066 22.5653C97.9675 22.6695 97.7805 22.8127 97.6455 22.995C97.513 23.1773 97.4467 23.3845 97.4467 23.6165C97.4467 23.8106 97.4928 23.9775 97.5852 24.1172C97.6799 24.2545 97.8006 24.3693 97.9474 24.4616C98.0942 24.5516 98.248 24.6262 98.409 24.6854C98.57 24.7422 98.718 24.7884 98.8529 24.8239L99.5916 25.0227C99.7809 25.0724 99.9916 25.1411 100.224 25.2287C100.458 25.3163 100.682 25.4358 100.895 25.5874C101.11 25.7365 101.288 25.9283 101.427 26.1626C101.567 26.397 101.637 26.6847 101.637 27.0256C101.637 27.4186 101.534 27.7737 101.328 28.0909C101.124 28.4081 100.826 28.6603 100.433 28.8473C100.043 29.0343 99.5679 29.1278 99.0092 29.1278C98.4883 29.1278 98.0373 29.0438 97.6562 28.8757C97.2774 28.7076 96.9791 28.4732 96.7613 28.1726C96.5459 27.8719 96.4239 27.5227 96.3955 27.125H97.3046C97.3283 27.3996 97.4206 27.6269 97.5816 27.8068C97.745 27.9844 97.9509 28.117 98.1995 28.2045C98.4505 28.2898 98.7203 28.3324 99.0092 28.3324C99.3453 28.3324 99.6472 28.2779 99.9147 28.169C100.182 28.0578 100.394 27.9039 100.55 27.7074C100.707 27.5085 100.785 27.2765 100.785 27.0114C100.785 26.7699 100.717 26.5734 100.582 26.4219C100.447 26.2704 100.27 26.1473 100.05 26.0526C99.8295 25.9579 99.5916 25.875 99.3359 25.804L98.441 25.5483C97.8728 25.3849 97.423 25.1518 97.0916 24.8487C96.7601 24.5457 96.5944 24.1491 96.5944 23.6591C96.5944 23.2519 96.7045 22.8968 96.9246 22.5938C97.1472 22.2884 97.4455 22.0516 97.8195 21.8835C98.196 21.7131 98.6162 21.6278 99.0802 21.6278C99.5489 21.6278 99.9656 21.7119 100.33 21.88C100.695 22.0457 100.984 22.273 101.197 22.5618C101.412 22.8506 101.526 23.1785 101.538 23.5455H100.685ZM105.376 29.1278C105.031 29.1278 104.717 29.0627 104.435 28.9325C104.154 28.8 103.93 28.6094 103.764 28.3608C103.599 28.1098 103.516 27.8068 103.516 27.4517C103.516 27.1392 103.577 26.8859 103.7 26.6918C103.823 26.4953 103.988 26.3414 104.194 26.2301C104.4 26.1188 104.627 26.036 104.876 25.9815C105.127 25.9247 105.379 25.8797 105.632 25.8466C105.964 25.804 106.232 25.772 106.438 25.7507C106.647 25.727 106.798 25.688 106.893 25.6335C106.99 25.5791 107.038 25.4844 107.038 25.3494V25.321C107.038 24.9706 106.943 24.6984 106.751 24.5043C106.561 24.3101 106.274 24.2131 105.888 24.2131C105.488 24.2131 105.174 24.3007 104.947 24.4759C104.719 24.651 104.56 24.8381 104.467 25.0369L103.672 24.7528C103.814 24.4214 104.003 24.1634 104.24 23.9787C104.479 23.7917 104.74 23.6615 105.021 23.5881C105.305 23.5123 105.585 23.4744 105.859 23.4744C106.035 23.4744 106.236 23.4957 106.463 23.5384C106.693 23.5786 106.914 23.6626 107.127 23.7905C107.343 23.9183 107.521 24.1113 107.663 24.3693C107.805 24.6274 107.876 24.973 107.876 25.4062V29H107.038V28.2614H106.996C106.939 28.3797 106.844 28.5064 106.712 28.6413C106.579 28.7763 106.403 28.8911 106.183 28.9858C105.962 29.0805 105.694 29.1278 105.376 29.1278ZM105.504 28.375C105.836 28.375 106.115 28.3099 106.342 28.1797C106.572 28.0495 106.745 27.8814 106.861 27.6754C106.979 27.4695 107.038 27.2528 107.038 27.0256V26.2585C107.003 26.3011 106.925 26.3402 106.804 26.3757C106.686 26.4089 106.548 26.4384 106.392 26.4645C106.238 26.4882 106.088 26.5095 105.941 26.5284C105.797 26.545 105.679 26.5592 105.59 26.571C105.372 26.5994 105.168 26.6456 104.979 26.7095C104.792 26.7711 104.64 26.8646 104.524 26.9901C104.411 27.1132 104.354 27.2812 104.354 27.4943C104.354 27.7855 104.461 28.0057 104.677 28.1548C104.895 28.3016 105.17 28.375 105.504 28.375ZM114.471 23.5455L112.454 29H111.602L109.585 23.5455H110.494L111.999 27.892H112.056L113.562 23.5455H114.471ZM116.377 29V23.5455H117.215V29H116.377ZM116.803 22.6364C116.64 22.6364 116.499 22.5807 116.381 22.4695C116.265 22.3582 116.207 22.2244 116.207 22.0682C116.207 21.9119 116.265 21.7782 116.381 21.6669C116.499 21.5556 116.64 21.5 116.803 21.5C116.967 21.5 117.106 21.5556 117.222 21.6669C117.341 21.7782 117.4 21.9119 117.4 22.0682C117.4 22.2244 117.341 22.3582 117.222 22.4695C117.106 22.5807 116.967 22.6364 116.803 22.6364ZM120.388 25.7188V29H119.55V23.5455H120.36V24.3977H120.431C120.559 24.1207 120.753 23.8982 121.013 23.7301C121.274 23.5597 121.61 23.4744 122.022 23.4744C122.391 23.4744 122.714 23.5502 122.991 23.7017C123.268 23.8509 123.484 24.0781 123.638 24.3835C123.791 24.6866 123.868 25.0701 123.868 25.5341V29H123.03V25.5909C123.03 25.1624 122.919 24.8286 122.697 24.5895C122.474 24.348 122.169 24.2273 121.78 24.2273C121.513 24.2273 121.274 24.2853 121.063 24.4013C120.855 24.5173 120.69 24.6866 120.569 24.9091C120.449 25.1316 120.388 25.4015 120.388 25.7188ZM128.402 31.1591C127.997 31.1591 127.649 31.107 127.358 31.0028C127.066 30.901 126.824 30.7661 126.63 30.598C126.438 30.4323 126.285 30.2547 126.171 30.0653L126.839 29.5966C126.915 29.696 127.011 29.8097 127.127 29.9375C127.243 30.0677 127.401 30.1802 127.603 30.2749C127.806 30.3719 128.072 30.4205 128.402 30.4205C128.842 30.4205 129.205 30.3139 129.492 30.1009C129.778 29.8878 129.921 29.554 129.921 29.0994V27.9915H129.85C129.789 28.0909 129.701 28.214 129.588 28.3608C129.476 28.5052 129.315 28.6342 129.105 28.7479C128.896 28.8591 128.615 28.9148 128.26 28.9148C127.819 28.9148 127.424 28.8106 127.073 28.6023C126.725 28.3939 126.45 28.0909 126.246 27.6932C126.045 27.2955 125.944 26.8125 125.944 26.2443C125.944 25.6856 126.042 25.1991 126.239 24.7848C126.435 24.3681 126.709 24.0462 127.059 23.8189C127.41 23.5893 127.814 23.4744 128.274 23.4744C128.629 23.4744 128.911 23.5336 129.119 23.652C129.33 23.768 129.491 23.9006 129.602 24.0497C129.715 24.1965 129.803 24.3172 129.865 24.4119H129.95V23.5455H130.76V29.1562C130.76 29.625 130.653 30.0062 130.44 30.2997C130.229 30.5956 129.945 30.8123 129.588 30.9496C129.233 31.0893 128.837 31.1591 128.402 31.1591ZM128.373 28.1619C128.709 28.1619 128.993 28.085 129.225 27.9311C129.457 27.7772 129.634 27.5559 129.755 27.267C129.875 26.9782 129.936 26.6326 129.936 26.2301C129.936 25.8371 129.876 25.4903 129.758 25.1896C129.64 24.889 129.465 24.6534 129.233 24.483C129.001 24.3125 128.714 24.2273 128.373 24.2273C128.018 24.2273 127.722 24.3172 127.485 24.4972C127.251 24.6771 127.075 24.9186 126.956 25.2216C126.84 25.5246 126.782 25.8608 126.782 26.2301C126.782 26.6089 126.841 26.9439 126.96 27.2351C127.081 27.5239 127.258 27.7512 127.492 27.9169C127.729 28.0803 128.023 28.1619 128.373 28.1619ZM136.957 24.767L136.204 24.9801C136.157 24.8546 136.087 24.7327 135.995 24.6143C135.905 24.4936 135.782 24.3942 135.626 24.3161C135.469 24.2379 135.269 24.1989 135.025 24.1989C134.692 24.1989 134.413 24.2758 134.191 24.4297C133.971 24.5812 133.861 24.7741 133.861 25.0085C133.861 25.2169 133.936 25.3814 134.088 25.5021C134.239 25.6229 134.476 25.7235 134.798 25.804L135.608 26.0028C136.096 26.1212 136.459 26.3023 136.698 26.5462C136.937 26.7876 137.057 27.099 137.057 27.4801C137.057 27.7926 136.967 28.072 136.787 28.3182C136.609 28.5644 136.361 28.7585 136.041 28.9006C135.721 29.0426 135.35 29.1136 134.926 29.1136C134.37 29.1136 133.909 28.9929 133.545 28.7514C133.18 28.5099 132.949 28.1572 132.852 27.6932L133.648 27.4943C133.723 27.7879 133.867 28.008 134.077 28.1548C134.29 28.3016 134.569 28.375 134.912 28.375C135.302 28.375 135.613 28.2921 135.842 28.1264C136.074 27.9583 136.19 27.7571 136.19 27.5227C136.19 27.3333 136.124 27.1747 135.991 27.0469C135.859 26.9167 135.655 26.8196 135.381 26.7557L134.471 26.5426C133.972 26.4242 133.605 26.2408 133.371 25.9922C133.139 25.7412 133.023 25.4276 133.023 25.0511C133.023 24.7434 133.109 24.4711 133.282 24.2344C133.457 23.9976 133.695 23.8118 133.996 23.6768C134.299 23.5419 134.642 23.4744 135.025 23.4744C135.565 23.4744 135.989 23.5928 136.297 23.8295C136.607 24.0663 136.827 24.3788 136.957 24.767ZM142.844 29V21.7273H145.302C145.872 21.7273 146.339 21.8303 146.701 22.0362C147.065 22.2398 147.335 22.5156 147.511 22.8636C147.686 23.2116 147.773 23.5999 147.773 24.0284C147.773 24.4569 147.686 24.8464 147.511 25.1967C147.338 25.5471 147.07 25.8265 146.708 26.0348C146.346 26.2408 145.882 26.3438 145.316 26.3438H143.555V25.5625H145.288C145.678 25.5625 145.992 25.495 146.229 25.3601C146.465 25.2251 146.637 25.0429 146.743 24.8132C146.852 24.5812 146.907 24.3196 146.907 24.0284C146.907 23.7372 146.852 23.4768 146.743 23.2472C146.637 23.0175 146.464 22.8376 146.225 22.7074C145.986 22.5748 145.669 22.5085 145.273 22.5085H143.725V29H142.844ZM149.878 29V23.5455H150.688V24.3693H150.745C150.844 24.0994 151.024 23.8804 151.285 23.7124C151.545 23.5443 151.839 23.4602 152.165 23.4602C152.227 23.4602 152.304 23.4614 152.396 23.4638C152.488 23.4661 152.558 23.4697 152.606 23.4744V24.3267C152.577 24.3196 152.512 24.3089 152.41 24.2947C152.311 24.2782 152.206 24.2699 152.094 24.2699C151.829 24.2699 151.592 24.3255 151.384 24.4368C151.178 24.5457 151.015 24.6972 150.894 24.8913C150.776 25.0831 150.716 25.3021 150.716 25.5483V29H149.878ZM156.449 29.1136C155.957 29.1136 155.524 28.9964 155.153 28.7621C154.783 28.5277 154.495 28.1998 154.286 27.7784C154.08 27.357 153.977 26.8646 153.977 26.3011C153.977 25.733 154.08 25.237 154.286 24.8132C154.495 24.3894 154.783 24.0604 155.153 23.826C155.524 23.5916 155.957 23.4744 156.449 23.4744C156.941 23.4744 157.372 23.5916 157.742 23.826C158.113 24.0604 158.402 24.3894 158.608 24.8132C158.816 25.237 158.921 25.733 158.921 26.3011C158.921 26.8646 158.816 27.357 158.608 27.7784C158.402 28.1998 158.113 28.5277 157.742 28.7621C157.372 28.9964 156.941 29.1136 156.449 29.1136ZM156.449 28.3608C156.823 28.3608 157.131 28.2649 157.372 28.0732C157.614 27.8814 157.792 27.6293 157.908 27.3168C158.024 27.0043 158.082 26.6657 158.082 26.3011C158.082 25.9366 158.024 25.5968 157.908 25.282C157.792 24.9671 157.614 24.7126 157.372 24.5185C157.131 24.3243 156.823 24.2273 156.449 24.2273C156.075 24.2273 155.767 24.3243 155.526 24.5185C155.284 24.7126 155.105 24.9671 154.989 25.282C154.873 25.5968 154.815 25.9366 154.815 26.3011C154.815 26.6657 154.873 27.0043 154.989 27.3168C155.105 27.6293 155.284 27.8814 155.526 28.0732C155.767 28.2649 156.075 28.3608 156.449 28.3608ZM163.202 31.1591C162.797 31.1591 162.449 31.107 162.158 31.0028C161.866 30.901 161.624 30.7661 161.43 30.598C161.238 30.4323 161.085 30.2547 160.971 30.0653L161.639 29.5966C161.715 29.696 161.811 29.8097 161.927 29.9375C162.043 30.0677 162.201 30.1802 162.403 30.2749C162.606 30.3719 162.872 30.4205 163.202 30.4205C163.642 30.4205 164.005 30.3139 164.292 30.1009C164.578 29.8878 164.721 29.554 164.721 29.0994V27.9915H164.65C164.589 28.0909 164.501 28.214 164.388 28.3608C164.276 28.5052 164.115 28.6342 163.905 28.7479C163.696 28.8591 163.415 28.9148 163.06 28.9148C162.619 28.9148 162.224 28.8106 161.873 28.6023C161.525 28.3939 161.25 28.0909 161.046 27.6932C160.845 27.2955 160.744 26.8125 160.744 26.2443C160.744 25.6856 160.842 25.1991 161.039 24.7848C161.235 24.3681 161.509 24.0462 161.859 23.8189C162.21 23.5893 162.614 23.4744 163.074 23.4744C163.429 23.4744 163.711 23.5336 163.919 23.652C164.13 23.768 164.291 23.9006 164.402 24.0497C164.515 24.1965 164.603 24.3172 164.665 24.4119H164.75V23.5455H165.56V29.1562C165.56 29.625 165.453 30.0062 165.24 30.2997C165.029 30.5956 164.745 30.8123 164.388 30.9496C164.033 31.0893 163.637 31.1591 163.202 31.1591ZM163.173 28.1619C163.509 28.1619 163.793 28.085 164.025 27.9311C164.257 27.7772 164.434 27.5559 164.555 27.267C164.675 26.9782 164.736 26.6326 164.736 26.2301C164.736 25.8371 164.676 25.4903 164.558 25.1896C164.44 24.889 164.265 24.6534 164.033 24.483C163.801 24.3125 163.514 24.2273 163.173 24.2273C162.818 24.2273 162.522 24.3172 162.285 24.4972C162.051 24.6771 161.875 24.9186 161.756 25.2216C161.64 25.5246 161.582 25.8608 161.582 26.2301C161.582 26.6089 161.641 26.9439 161.76 27.2351C161.881 27.5239 162.058 27.7512 162.292 27.9169C162.529 28.0803 162.823 28.1619 163.173 28.1619ZM167.894 29V23.5455H168.703V24.3693H168.76C168.86 24.0994 169.039 23.8804 169.3 23.7124C169.56 23.5443 169.854 23.4602 170.181 23.4602C170.242 23.4602 170.319 23.4614 170.411 23.4638C170.504 23.4661 170.574 23.4697 170.621 23.4744V24.3267C170.592 24.3196 170.527 24.3089 170.426 24.2947C170.326 24.2782 170.221 24.2699 170.11 24.2699C169.844 24.2699 169.608 24.3255 169.399 24.4368C169.193 24.5457 169.03 24.6972 168.909 24.8913C168.791 25.0831 168.732 25.3021 168.732 25.5483V29H167.894ZM174.019 29.1278C173.674 29.1278 173.36 29.0627 173.078 28.9325C172.797 28.8 172.573 28.6094 172.407 28.3608C172.241 28.1098 172.159 27.8068 172.159 27.4517C172.159 27.1392 172.22 26.8859 172.343 26.6918C172.466 26.4953 172.631 26.3414 172.837 26.2301C173.043 26.1188 173.27 26.036 173.519 25.9815C173.77 25.9247 174.022 25.8797 174.275 25.8466C174.607 25.804 174.875 25.772 175.081 25.7507C175.29 25.727 175.441 25.688 175.536 25.6335C175.633 25.5791 175.681 25.4844 175.681 25.3494V25.321C175.681 24.9706 175.585 24.6984 175.394 24.5043C175.204 24.3101 174.917 24.2131 174.531 24.2131C174.131 24.2131 173.817 24.3007 173.59 24.4759C173.362 24.651 173.203 24.8381 173.11 25.0369L172.315 24.7528C172.457 24.4214 172.646 24.1634 172.883 23.9787C173.122 23.7917 173.383 23.6615 173.664 23.5881C173.948 23.5123 174.228 23.4744 174.502 23.4744C174.678 23.4744 174.879 23.4957 175.106 23.5384C175.336 23.5786 175.557 23.6626 175.77 23.7905C175.986 23.9183 176.164 24.1113 176.306 24.3693C176.448 24.6274 176.519 24.973 176.519 25.4062V29H175.681V28.2614H175.639C175.582 28.3797 175.487 28.5064 175.355 28.6413C175.222 28.7763 175.046 28.8911 174.826 28.9858C174.605 29.0805 174.337 29.1278 174.019 29.1278ZM174.147 28.375C174.479 28.375 174.758 28.3099 174.985 28.1797C175.215 28.0495 175.388 27.8814 175.504 27.6754C175.622 27.4695 175.681 27.2528 175.681 27.0256V26.2585C175.646 26.3011 175.568 26.3402 175.447 26.3757C175.329 26.4089 175.191 26.4384 175.035 26.4645C174.881 26.4882 174.731 26.5095 174.584 26.5284C174.44 26.545 174.322 26.5592 174.232 26.571C174.015 26.5994 173.811 26.6456 173.622 26.7095C173.435 26.7711 173.283 26.8646 173.167 26.9901C173.054 27.1132 172.997 27.2812 172.997 27.4943C172.997 27.7855 173.104 28.0057 173.32 28.1548C173.538 28.3016 173.813 28.375 174.147 28.375ZM178.849 29V23.5455H179.659V24.3977H179.73C179.843 24.1065 180.027 23.8804 180.28 23.7195C180.533 23.5561 180.838 23.4744 181.193 23.4744C181.553 23.4744 181.852 23.5561 182.091 23.7195C182.333 23.8804 182.521 24.1065 182.656 24.3977H182.713C182.852 24.116 183.062 23.8923 183.341 23.7266C183.621 23.5585 183.956 23.4744 184.346 23.4744C184.834 23.4744 185.233 23.6271 185.543 23.9325C185.853 24.2356 186.008 24.7079 186.008 25.3494V29H185.17V25.3494C185.17 24.947 185.06 24.6593 184.84 24.4865C184.62 24.3137 184.36 24.2273 184.062 24.2273C183.679 24.2273 183.382 24.3433 183.171 24.5753C182.96 24.8049 182.855 25.0961 182.855 25.4489V29H182.002V25.2642C182.002 24.9541 181.902 24.7043 181.701 24.5149C181.499 24.3232 181.24 24.2273 180.923 24.2273C180.705 24.2273 180.502 24.2853 180.312 24.4013C180.125 24.5173 179.974 24.6783 179.858 24.8842C179.744 25.0878 179.687 25.3234 179.687 25.5909V29H178.849Z" fill="white"/>
</svg>
